<?xml version="1.0" encoding="UTF-8"?><svg xmlns="http://www.w3.org/2000/svg" viewBox="0 0 1120.98 629.91"><defs><style>.cls-1{stroke-width:12px;}.cls-1,.cls-2,.cls-3,.cls-4,.cls-5,.cls-6,.cls-7{fill:none;stroke-miterlimit:10;}.cls-1,.cls-2,.cls-4,.cls-5,.cls-6,.cls-7{stroke:#24282d;}.cls-8{letter-spacing:-.02em;}.cls-2,.cls-4,.cls-5,.cls-6,.cls-7{stroke-width:6px;}.cls-9{letter-spacing:0em;}.cls-10{font-size:8px;}.cls-10,.cls-11,.cls-12{font-family:Exo2-Bold, 'Exo 2';font-variation-settings:'wght' 700;font-weight:700;}.cls-13{letter-spacing:0em;}.cls-14{letter-spacing:0em;}.cls-11,.cls-12{font-size:12px;}.cls-3{stroke:#000;}.cls-4{stroke-dasharray:0 0 12 4;}.cls-12,.cls-15{fill:#24282d;}.cls-5{stroke-dasharray:0 0 11.88 3.96;}.cls-6{stroke-dasharray:0 0 11.84 3.95;}.cls-16{letter-spacing:0em;}.cls-17,.cls-18,.cls-19,.cls-15,.cls-20,.cls-21,.cls-22,.cls-23,.cls-24,.cls-25,.cls-26,.cls-27,.cls-28,.cls-29{stroke-width:0px;}.cls-7{stroke-dasharray:0 0 12 4;}.cls-18{fill:#f8c451;}.cls-19{fill:#3e9b4f;}.cls-20{fill:#8d8d8d;}.cls-21{fill:#a07553;}.cls-22{fill:#fadb8d;}.cls-23{fill:#f6ae2d;}.cls-24{fill:#f4f6f7;}.cls-25{fill:#022f4f;}.cls-26{fill:#034b78;}.cls-27{fill:#005991;}.cls-28{fill:#006ab0;}.cls-29{fill:#0086d9;}.cls-30{letter-spacing:0em;}</style></defs><g id="Fond"><rect id="Fond-2" class="cls-24" width="1120.98" height="629.91"/><text class="cls-10" transform="translate(1070.25 168.62)"><tspan class="cls-13" x="0" y="0">v</tspan><tspan x="4.46" y="0">ers la N4</tspan></text><line class="cls-3" x1="1073.53" y1="159.49" x2="1099.59" y2="148.69"/><polygon class="cls-17" points="1098.41 153.18 1098.45 149.16 1095.57 146.34 1105.1 146.4 1098.41 153.18"/></g><g id="Infrastructures"><g id="Marcheur"><circle id="Marcheur-2" class="cls-22" cx="407.6" cy="355.47" r="22.67"/><path class="cls-15" d="m395.23,352.69c.29,0,.44.15.45.45l.21,5.07h-1.13l-.18-4.58h-.14l-.89,3.44c-.05.26-.21.38-.48.38h-.77c-.27,0-.44-.13-.5-.38l-.89-3.44h-.14l-.17,4.58h-1.14l.21-5.07c.01-.3.16-.45.46-.45h1.14c.26,0,.42.13.48.39l.71,2.78c.03.13.06.26.08.39.02.13.04.26.07.4h.1c.03-.13.05-.26.08-.4.02-.13.05-.26.08-.4l.7-2.77c.05-.26.21-.39.48-.39h1.17Z"/><path class="cls-15" d="m399.97,355.78v.66s-1.77,0-1.77,0c-.14,0-.25.03-.31.1s-.09.16-.09.28v.19c0,.13.04.24.11.31.07.07.19.11.36.11.14,0,.29-.03.45-.09s.32-.14.48-.25c.16-.11.3-.23.42-.38v.51c-.05.08-.12.18-.21.3-.09.12-.21.24-.36.35-.14.12-.31.21-.5.29-.19.08-.41.12-.66.12s-.46-.04-.65-.13c-.19-.08-.34-.21-.46-.38s-.17-.37-.17-.62v-.41c0-.31.11-.56.32-.74.21-.18.51-.26.88-.26h2.14Zm-1.06-1.62c.33,0,.61.04.84.13.23.09.4.24.52.45.12.21.18.5.18.87v2.61h-.94l-.17-.86-.08-.12v-1.64c0-.19-.04-.32-.13-.41-.09-.08-.25-.13-.5-.13-.2,0-.46,0-.76.02-.3.01-.62.03-.94.05l-.11-.78c.19-.04.41-.07.66-.1.25-.03.5-.05.75-.07.25-.02.47-.03.67-.03Z"/><path class="cls-15" d="m402.31,354.26l.14.78.11.1v3.06h-1.18v-3.95h.93Zm1.93-.1l-.11,1.1h-.33c-.19,0-.38.03-.58.08-.2.05-.46.13-.77.24l-.08-.66c.28-.25.56-.43.84-.56.28-.13.56-.19.82-.19h.21Z"/><path class="cls-15" d="m406.58,354.16c.14,0,.3,0,.47.02s.34.04.52.07c.17.03.33.08.48.15l-.13.74c-.21,0-.42-.01-.61-.02-.19,0-.37,0-.52,0-.24,0-.43.03-.57.1-.14.06-.24.18-.3.34-.06.16-.09.39-.09.68s.03.52.09.69c.06.17.16.28.3.34.14.06.33.1.57.1.09,0,.2,0,.33,0,.13,0,.28-.01.43-.02.15,0,.31-.02.46-.04l.11.75c-.21.1-.46.17-.73.21-.27.04-.54.06-.81.06-.49,0-.88-.07-1.17-.2-.29-.14-.5-.36-.63-.66-.13-.3-.19-.71-.19-1.22s.06-.91.2-1.22.34-.52.64-.66c.29-.13.68-.2,1.17-.2Z"/><path class="cls-15" d="m409.99,352.61v1.37c0,.21,0,.41-.03.59-.02.19-.05.34-.08.47l.11.1v3.06h-1.18v-5.6h1.18Zm1.57,1.54c.75,0,1.12.37,1.12,1.1v2.96h-1.19v-2.59c0-.18-.03-.3-.09-.36-.06-.07-.17-.1-.32-.1-.17,0-.35.03-.53.1-.18.06-.41.17-.67.31l-.1-.62c.29-.26.59-.45.9-.59.3-.14.6-.2.9-.2Z"/><path class="cls-15" d="m415.49,354.16c.67,0,1.15.11,1.44.34s.44.56.44,1.01c0,.36-.08.63-.27.81s-.51.27-.97.27h-2.21v-.66h1.88c.18,0,.3-.04.35-.12s.08-.19.08-.32c0-.19-.06-.32-.16-.39-.1-.07-.28-.11-.52-.11-.22,0-.39.03-.51.09-.12.06-.21.17-.26.34-.05.17-.07.41-.07.72,0,.33.03.58.09.76s.16.3.3.37c.14.07.34.1.59.1.18,0,.41,0,.68-.02.27-.01.54-.04.81-.07l.11.73c-.15.07-.33.13-.53.18-.2.04-.4.07-.61.09s-.41.03-.6.03c-.5,0-.91-.07-1.21-.22s-.53-.37-.66-.68c-.14-.3-.2-.69-.2-1.17,0-.52.07-.93.21-1.23s.36-.52.66-.66c.3-.13.69-.2,1.18-.2Z"/><path class="cls-15" d="m419.29,354.26v2.6c0,.17.04.28.11.35s.19.1.35.1.33-.03.49-.09.36-.16.6-.29l.1.65c-.29.25-.57.44-.85.56-.28.12-.56.18-.86.18-.75,0-1.13-.37-1.13-1.1v-2.96h1.18Zm2.62,0v3.95h-.94l-.14-.78-.11-.11v-3.06h1.18Z"/><path class="cls-15" d="m423.8,354.26l.14.78.11.1v3.06h-1.18v-3.95h.93Zm1.93-.1l-.11,1.1h-.33c-.19,0-.38.03-.58.08-.2.05-.46.13-.77.24l-.08-.66c.28-.25.56-.43.84-.56.28-.13.56-.19.82-.19h.21Z"/></g><g id="Paddocks"><g id="Paddocks-2"><polygon class="cls-19" points="808.77 492.43 806.51 526 760.83 527.6 759.52 492.43 808.77 492.43"/><polygon class="cls-19" points="806.37 528.08 804.29 559.02 762.06 560.49 760.91 529.67 806.37 528.08"/><path class="cls-19" d="m804.15,561.1l-.94,14.01c-.64,9.6-7.62,17.58-17.05,19.5l-22.65,4.62-1.37-36.67,42.01-1.46Z"/></g><text class="cls-11" transform="translate(787.56 573.23) rotate(-90)"><tspan class="cls-30" x="0" y="0">P</tspan><tspan x="7.36" y="0">addocks</tspan></text></g><g id="_Écuries"><polygon class="cls-21" points="587.66 91.87 587.66 165.65 426.4 165.65 426.4 101.89 484.9 101.89 484.9 91.87 587.66 91.87"/><polygon class="cls-21" points="588.65 196.29 588.65 254.98 435.16 254.98 435.16 303.22 382.91 303.22 381.42 285.19 364.1 286.72 359.29 179.96 386.36 179.96 386.36 202.07 588.65 196.29"/></g><g id="_Écuries_labels"><path class="cls-15" d="m456.15,230.62c-.2,0-.35-.05-.45-.16-.1-.1-.15-.25-.15-.45v-4.23c0-.2.05-.35.15-.45.1-.11.25-.16.45-.16h3.18l.08-1.33c-.38-.04-.79-.07-1.23-.09-.44-.01-.89-.02-1.35-.03h-1.35c-.53,0-.96.15-1.28.45-.32.31-.49.71-.49,1.22v5.01c0,.5.17.9.49,1.21s.75.46,1.28.46c.45,0,.9,0,1.35-.01.46,0,.91-.01,1.35-.03.44-.02.85-.05,1.23-.08l-.08-1.33h-3.18Zm-2.22-3.54v1.29h4.96v-1.29h-4.96Zm4.2-6.4l-2.44,1.78.53.75,2.68-1.33-.77-1.2Z"/><path class="cls-15" d="m465.45,230.64c-.22.03-.45.06-.68.07-.24,0-.45.02-.65.03-.2.01-.36.01-.49.01-.36,0-.65-.05-.86-.14-.2-.1-.35-.27-.45-.52-.09-.25-.13-.59-.13-1.03s.04-.77.13-1.02c.1-.24.25-.41.45-.51.21-.09.5-.14.86-.14.23,0,.49,0,.78.01.3,0,.6.02.92.03l.19-1.12c-.21-.1-.45-.17-.71-.22-.26-.05-.52-.09-.77-.11-.26-.02-.5-.03-.71-.03-.73,0-1.32.1-1.76.3-.43.2-.75.53-.95.98-.19.46-.29,1.07-.29,1.83s.09,1.37.28,1.82c.2.46.51.79.95.99.43.21,1.02.31,1.75.31.41,0,.81-.03,1.22-.1.4-.06.77-.17,1.09-.31l-.17-1.13Z"/><path class="cls-15" d="m470.74,230.11c-.06.03-.12.07-.18.1-.28.15-.52.27-.72.34-.25.09-.49.14-.74.14s-.42-.05-.52-.16c-.11-.1-.17-.28-.17-.52v-3.9h-1.77v4.44c0,1.1.56,1.65,1.69,1.65.44,0,.87-.09,1.28-.27.39-.17.77-.42,1.17-.76.04-.02.07-.05.11-.08l-.15-.98Zm-.18-4v4.59l.17.17.05.3.15.86h1.41v-5.92h-1.78Z"/><path class="cls-15" d="m475.4,227.28l-.05-.27-.17-.9h-1.39v5.92h1.78v-4.59l-.17-.16Zm2.36-1.33c-.4,0-.81.1-1.23.29-.4.18-.8.43-1.18.77-.03.02-.05.05-.08.07l.12.99c.06-.02.12-.04.18-.06.38-.13.7-.23.97-.3.3-.08.59-.12.87-.12h.5l.16-1.64h-.31Z"/><path class="cls-15" d="m480.23,223.49h-.76c-.36,0-.53.18-.53.54v.64c0,.36.17.54.53.54h.76c.36,0,.53-.18.53-.54v-.64c0-.36-.17-.54-.53-.54Zm-1.27,2.62v5.92h1.77v-5.92h-1.77Z"/><path class="cls-15" d="m486.31,230.74c-.4.02-.74.03-1.01.03-.38,0-.67-.05-.88-.15-.22-.11-.37-.29-.45-.56-.04-.13-.08-.28-.1-.46h2.11c.69,0,1.17-.14,1.45-.4.28-.27.42-.68.41-1.22,0-.67-.22-1.18-.65-1.52-.44-.34-1.16-.51-2.16-.51-.72,0-1.31.1-1.76.3s-.78.53-.98.98c-.21.46-.32,1.08-.32,1.85,0,.71.11,1.3.31,1.75.2.46.54.8,1,1.02.46.22,1.06.33,1.81.33.29,0,.59-.02.9-.04.32-.03.62-.08.92-.14.29-.07.56-.15.79-.27l-.17-1.09c-.41.05-.81.08-1.22.1Zm-2.37-2.91c.07-.24.2-.41.39-.5.18-.09.44-.13.76-.13.37,0,.63.05.79.16.16.11.24.3.25.58,0,.21-.04.37-.12.49-.07.11-.25.17-.52.17h-1.65c.01-.32.05-.58.1-.77Z"/><path class="cls-15" d="m493.87,229.2c-.24-.26-.61-.45-1.11-.57l-1.55-.38c-.28-.07-.48-.13-.6-.19s-.18-.18-.18-.36c0-.15.04-.26.11-.32.06-.06.18-.09.35-.11.17-.02.41-.02.72-.01h1.13c.39.01.78.01,1.16.02l.12-1.1c-.25-.05-.53-.09-.85-.12-.32-.03-.65-.06-.98-.08-.34-.02-.65-.03-.94-.03-.62,0-1.11.06-1.48.17s-.64.29-.81.53c-.16.25-.24.57-.24.98,0,.32.04.6.12.83.09.23.23.43.44.59.21.16.5.29.88.39l1.5.37c.29.08.51.14.65.21.13.06.2.18.2.36,0,.14-.04.25-.12.32s-.23.12-.44.14c-.22.02-.53.03-.94.03h-.79c-.27,0-.51,0-.73-.01-.23,0-.41-.01-.56-.01l-.12,1.1c.59.1,1.12.16,1.61.18s.86.04,1.11.04c.63,0,1.14-.05,1.54-.15.4-.1.7-.29.88-.55.18-.26.28-.64.28-1.14s-.12-.88-.36-1.13Z"/><path class="cls-15" d="m489.21,132.94c-.2,0-.35-.06-.45-.16s-.15-.26-.15-.46v-4.22c0-.2.05-.35.15-.46.1-.1.25-.15.45-.15h3.18l.08-1.33c-.38-.04-.79-.07-1.23-.09-.44-.01-.89-.02-1.35-.03h-1.35c-.53,0-.96.15-1.28.45-.32.31-.49.71-.49,1.21v5.02c0,.5.17.9.49,1.21.32.3.75.46,1.28.46.45,0,.9,0,1.35-.01.46,0,.91-.01,1.35-.03.44-.02.85-.05,1.23-.08l-.08-1.33h-3.18Zm-2.22-3.54v1.29h4.96v-1.29h-4.96Zm4.2-6.4l-2.44,1.78.53.75,2.68-1.33-.77-1.2Z"/><path class="cls-15" d="m498.51,132.96c-.22.03-.45.05-.68.07-.24.01-.45.02-.65.03-.2,0-.36.01-.49.01-.36,0-.65-.05-.86-.15-.2-.09-.35-.26-.45-.51-.09-.25-.13-.59-.13-1.03s.04-.77.13-1.02c.1-.24.25-.41.45-.51.21-.09.5-.14.86-.14.23,0,.49,0,.78,0,.3.01.6.02.92.02l.19-1.11c-.21-.1-.45-.17-.71-.22-.26-.06-.52-.09-.77-.11-.26-.02-.5-.03-.71-.03-.73,0-1.32.1-1.76.3-.43.2-.75.53-.95.98-.19.46-.29,1.07-.29,1.83s.09,1.36.28,1.82c.2.46.51.79.95.99.43.2,1.02.31,1.75.31.41,0,.81-.04,1.22-.1.4-.06.77-.17,1.09-.31l-.17-1.13Z"/><path class="cls-15" d="m503.8,132.43c-.06.03-.12.07-.18.1-.28.15-.52.27-.72.34-.25.09-.49.14-.74.14s-.42-.05-.52-.16c-.11-.1-.17-.28-.17-.53v-3.9h-1.77v4.44c0,1.11.56,1.66,1.69,1.66.44,0,.87-.09,1.28-.28.39-.17.77-.41,1.17-.75.04-.03.07-.06.11-.09l-.15-.97Zm-.18-4.01v4.6l.17.17.05.3.15.86h1.41v-5.93h-1.78Z"/><path class="cls-15" d="m508.46,129.6l-.05-.27-.17-.91h-1.39v5.93h1.78v-4.59l-.17-.16Zm2.36-1.33c-.4,0-.81.09-1.23.29-.4.18-.8.43-1.18.77-.03.02-.05.05-.08.07l.12.99c.06-.02.12-.04.18-.06.38-.13.7-.23.97-.3.3-.08.59-.12.87-.12h.5l.16-1.64h-.31Z"/><path class="cls-15" d="m513.29,125.81h-.76c-.36,0-.53.18-.53.54v.63c0,.36.17.54.53.54h.76c.36,0,.53-.18.53-.54v-.63c0-.36-.17-.54-.53-.54Zm-1.27,2.61v5.93h1.77v-5.93h-1.77Z"/><path class="cls-15" d="m519.37,133.06c-.4.02-.74.03-1.01.03-.38,0-.67-.05-.88-.15-.22-.11-.37-.29-.45-.56-.04-.13-.08-.28-.1-.46h2.11c.69,0,1.17-.14,1.45-.41.28-.26.42-.67.41-1.21,0-.68-.22-1.18-.65-1.52-.44-.34-1.16-.51-2.16-.51-.72,0-1.31.1-1.76.3s-.78.53-.98.98c-.21.46-.32,1.07-.32,1.85,0,.71.11,1.3.31,1.75.2.46.54.8,1,1.02.46.22,1.06.33,1.81.33.29,0,.59-.02.9-.05.32-.02.62-.07.92-.13.29-.07.56-.16.79-.27l-.17-1.09c-.41.05-.81.08-1.22.1Zm-2.37-2.91c.07-.25.2-.41.39-.5.18-.09.44-.13.76-.13.37,0,.63.05.79.16.16.11.24.3.25.58,0,.21-.04.37-.12.49-.07.11-.25.17-.52.17h-1.65c.01-.32.05-.58.1-.77Z"/><path class="cls-15" d="m526.93,131.51c-.24-.25-.61-.44-1.11-.57l-1.55-.37c-.28-.07-.48-.14-.6-.2s-.18-.17-.18-.35c0-.15.04-.26.11-.32.06-.06.18-.1.35-.11.17-.02.41-.02.72,0h1.13c.39,0,.78,0,1.16.02l.12-1.1c-.25-.05-.53-.09-.85-.12-.32-.04-.65-.06-.98-.08-.34-.02-.65-.03-.94-.03-.62,0-1.11.05-1.48.17-.37.11-.64.29-.81.53-.16.24-.24.57-.24.98,0,.32.04.59.12.83.09.23.23.42.44.58.21.16.5.3.88.4l1.5.37c.29.07.51.14.65.21.13.06.2.18.2.36,0,.14-.04.25-.12.32-.08.07-.23.12-.44.14-.22.02-.53.03-.94.03h-.79c-.27,0-.51,0-.73-.01-.23,0-.41-.01-.56-.02l-.12,1.11c.59.09,1.12.15,1.61.18.49.02.86.03,1.11.03.63,0,1.14-.05,1.54-.15.4-.1.7-.28.88-.54.18-.27.28-.65.28-1.14s-.12-.88-.36-1.14Z"/></g><g id="Manège_1"><rect class="cls-23" x="740.59" y="82.07" width="106.03" height="178.34"/><path class="cls-15" d="m776.51,166.41c.43,0,.66.22.67.67l.31,7.61h-1.69l-.28-6.86h-.22l-1.33,5.16c-.07.38-.31.58-.72.58h-1.15c-.41,0-.66-.19-.74-.58l-1.33-5.16h-.2l-.25,6.86h-1.7l.31-7.61c.02-.45.24-.67.68-.67h1.72c.39,0,.63.2.72.59l1.07,4.16c.05.19.09.39.12.58.03.2.07.39.11.59h.16c.04-.2.08-.4.11-.59.04-.2.07-.39.11-.59l1.06-4.15c.08-.39.32-.59.72-.59h1.75Z"/><path class="cls-15" d="m783.61,171.05v1s-2.65.01-2.65.01c-.22,0-.37.05-.46.16-.09.1-.14.24-.14.42v.29c0,.2.06.35.17.46.11.11.29.16.54.16.21,0,.43-.04.68-.13.24-.09.49-.21.73-.37.24-.16.45-.35.64-.56v.77c-.07.12-.18.27-.32.45-.14.18-.32.36-.53.53-.22.17-.47.32-.76.44-.29.12-.62.18-.98.18s-.68-.06-.97-.19-.52-.32-.68-.56-.25-.56-.25-.92v-.61c0-.47.16-.84.48-1.1.32-.26.76-.4,1.32-.4h3.2Zm-1.58-2.44c.5,0,.92.07,1.26.2.34.13.61.36.79.67.18.32.27.75.27,1.3v3.91h-1.42l-.25-1.28-.12-.18v-2.46c0-.28-.07-.48-.2-.61-.13-.13-.38-.19-.75-.19-.3,0-.68.01-1.14.03-.46.02-.92.05-1.4.08l-.17-1.18c.29-.06.62-.1,1-.14s.75-.07,1.13-.1c.38-.03.71-.04,1.01-.04Z"/><path class="cls-15" d="m787.17,168.77l.2,1.18.14.16v4.6h-1.78v-5.93h1.43Zm2.7-.16c1.12,0,1.68.55,1.68,1.64v4.44h-1.78v-3.89c0-.26-.05-.45-.14-.55-.1-.1-.26-.15-.49-.15-.26,0-.52.05-.79.15-.27.1-.61.25-1.01.46l-.08-1c.42-.36.86-.64,1.3-.83.44-.19.88-.29,1.31-.29Z"/><path class="cls-15" d="m795.76,168.61c1,0,1.72.17,2.15.51.44.34.65.85.65,1.52,0,.54-.13.95-.41,1.22s-.76.4-1.45.4h-3.31v-1h2.82c.27,0,.45-.06.52-.17.08-.12.11-.28.11-.49,0-.28-.09-.47-.25-.58-.16-.11-.42-.16-.79-.16-.33,0-.58.04-.77.13-.18.09-.31.26-.38.5-.07.25-.11.61-.11,1.08,0,.5.04.88.13,1.15.09.27.24.45.45.56s.51.16.88.16c.27,0,.61-.01,1.01-.03.4-.02.81-.05,1.22-.1l.17,1.09c-.23.11-.5.2-.79.26-.3.06-.6.11-.91.14-.31.03-.61.04-.9.04-.75,0-1.36-.11-1.82-.33-.46-.22-.79-.56-1-1.01-.2-.46-.31-1.04-.31-1.75,0-.78.1-1.39.31-1.85.21-.46.54-.78.98-.98.45-.2,1.04-.3,1.76-.3Zm-1.46-3.11l2.44,1.78-.52.76-2.69-1.34.77-1.19Z"/><path class="cls-15" d="m800.56,172.01l.89.16c-.11.06-.19.16-.23.3s-.03.26.03.38c.06.12.2.19.42.22l2.18.25c.62.06,1.06.24,1.32.52s.38.7.38,1.24c0,.51-.1.91-.31,1.18s-.54.47-1,.57c-.46.1-1.06.16-1.82.16-.62,0-1.14-.03-1.54-.09s-.72-.16-.96-.29c-.24-.14-.4-.31-.49-.53-.09-.22-.14-.49-.14-.82,0-.25.04-.46.13-.64.09-.18.24-.34.45-.49s.51-.28.89-.4l.88-.31.64.25-.48.31c-.2.14-.36.27-.49.37s-.21.2-.26.29c-.05.1-.08.22-.08.38,0,.18.04.33.12.43s.23.17.44.2c.21.04.5.05.87.05s.68-.02.9-.05.37-.1.45-.2c.08-.1.13-.23.13-.41,0-.15-.03-.26-.09-.34-.06-.07-.16-.13-.3-.16-.14-.04-.33-.07-.58-.1l-1.86-.2c-.31-.03-.56-.12-.73-.25-.18-.14-.3-.3-.37-.5-.07-.2-.09-.39-.05-.59.03-.2.11-.38.22-.54.12-.16.27-.28.45-.35Zm1.8-3.4c.69,0,1.23.06,1.64.19s.7.33.88.6.27.64.27,1.09-.09.8-.26,1.07-.47.48-.88.61-.96.19-1.65.19-1.24-.06-1.65-.19-.71-.33-.89-.6c-.18-.27-.27-.63-.27-1.08s.09-.81.27-1.09c.18-.28.48-.48.89-.61s.97-.19,1.66-.19Zm-.01,1.09c-.44,0-.74.06-.91.17-.17.12-.25.32-.25.62s.08.5.25.62c.17.12.47.18.91.18s.74-.06.9-.18c.16-.12.24-.33.24-.62s-.08-.5-.24-.62c-.16-.12-.46-.17-.9-.17Zm3.48-.94l-.1.76-1.58.2-.43-.96h2.11Z"/><path class="cls-15" d="m809.43,168.61c1,0,1.72.17,2.15.51.44.34.65.85.65,1.52,0,.54-.13.95-.41,1.22s-.76.4-1.45.4h-3.31v-1h2.82c.27,0,.45-.06.52-.17.08-.12.11-.28.11-.49,0-.28-.09-.47-.25-.58-.16-.11-.42-.16-.79-.16-.33,0-.58.04-.77.13-.18.09-.31.26-.38.5-.07.25-.11.61-.11,1.08,0,.5.04.88.13,1.15.09.27.24.45.45.56s.51.16.88.16c.27,0,.61-.01,1.01-.03.4-.02.81-.05,1.22-.1l.17,1.09c-.23.11-.5.2-.79.26-.3.06-.6.11-.91.14-.31.03-.61.04-.9.04-.75,0-1.36-.11-1.82-.33-.46-.22-.79-.56-1-1.01-.2-.46-.31-1.04-.31-1.75,0-.78.1-1.39.31-1.85.21-.46.54-.78.98-.98.45-.2,1.04-.3,1.76-.3Z"/><path class="cls-15" d="m819.34,166.41v8.28h-1.82v-5.87c0-.15,0-.3.01-.45s.03-.3.06-.45l-1.97.5-.22-1.19,2.11-.83h1.82Z"/></g><g id="Manège_2"><rect class="cls-18" x="599.46" y="131.96" width="133.59" height="81.87"/><path class="cls-15" d="m647.97,168.07c.43,0,.66.22.67.67l.31,7.61h-1.69l-.28-6.86h-.22l-1.33,5.16c-.07.38-.31.58-.72.58h-1.15c-.41,0-.66-.19-.74-.58l-1.33-5.16h-.2l-.25,6.86h-1.7l.31-7.61c.02-.45.24-.67.68-.67h1.72c.39,0,.63.2.72.59l1.07,4.16c.05.19.09.39.12.58.03.2.07.39.11.59h.16c.04-.2.08-.4.11-.59.04-.2.07-.39.11-.59l1.06-4.15c.08-.39.32-.59.72-.59h1.75Z"/><path class="cls-15" d="m655.08,172.7v1s-2.65.01-2.65.01c-.22,0-.37.05-.46.16-.09.1-.14.24-.14.42v.29c0,.2.06.35.17.46.11.11.29.16.54.16.21,0,.43-.04.68-.13.24-.09.49-.21.73-.37.24-.16.45-.35.64-.56v.77c-.07.12-.18.27-.32.45-.14.18-.32.36-.53.53-.22.17-.47.32-.76.44-.29.12-.62.18-.98.18s-.68-.06-.97-.19-.52-.32-.68-.56-.25-.56-.25-.92v-.61c0-.47.16-.84.48-1.1.32-.26.76-.4,1.32-.4h3.2Zm-1.58-2.44c.5,0,.92.07,1.26.2.34.13.61.36.79.67.18.32.27.75.27,1.3v3.91h-1.42l-.25-1.28-.12-.18v-2.46c0-.28-.07-.48-.2-.61-.13-.13-.38-.19-.75-.19-.3,0-.68.01-1.14.03-.46.02-.92.05-1.4.08l-.17-1.18c.29-.06.62-.1,1-.14s.75-.07,1.13-.1c.38-.03.71-.04,1.01-.04Z"/><path class="cls-15" d="m658.63,170.42l.2,1.18.14.16v4.6h-1.78v-5.93h1.43Zm2.7-.16c1.12,0,1.68.55,1.68,1.64v4.44h-1.78v-3.89c0-.26-.05-.45-.14-.55-.1-.1-.26-.15-.49-.15-.26,0-.52.05-.79.15-.27.1-.61.25-1.01.46l-.08-1c.42-.36.86-.64,1.3-.83.44-.19.88-.29,1.31-.29Z"/><path class="cls-15" d="m667.22,170.26c1,0,1.72.17,2.15.51.44.34.65.85.65,1.52,0,.54-.13.95-.41,1.22s-.76.4-1.45.4h-3.31v-1h2.82c.27,0,.45-.06.52-.17.08-.12.11-.28.11-.49,0-.28-.09-.47-.25-.58-.16-.11-.42-.16-.79-.16-.33,0-.58.04-.77.13-.18.09-.31.26-.38.5-.07.25-.11.61-.11,1.08,0,.5.04.88.13,1.15.09.27.24.45.45.56s.51.16.88.16c.27,0,.61-.01,1.01-.03.4-.02.81-.05,1.22-.1l.17,1.09c-.23.11-.5.2-.79.26-.3.06-.6.11-.91.14-.31.03-.61.04-.9.04-.75,0-1.36-.11-1.82-.33-.46-.22-.79-.56-1-1.01-.2-.46-.31-1.04-.31-1.75,0-.78.1-1.39.31-1.85.21-.46.54-.78.98-.98.45-.2,1.04-.3,1.76-.3Zm-1.46-3.11l2.44,1.78-.52.76-2.69-1.34.77-1.19Z"/><path class="cls-15" d="m672.02,173.66l.89.16c-.11.06-.19.16-.23.3s-.03.26.03.38c.06.12.2.19.42.22l2.18.25c.62.06,1.06.24,1.32.52s.38.7.38,1.24c0,.51-.1.91-.31,1.18s-.54.47-1,.57c-.46.1-1.06.16-1.82.16-.62,0-1.14-.03-1.54-.09s-.72-.16-.96-.29c-.24-.14-.4-.31-.49-.53-.09-.22-.14-.49-.14-.82,0-.25.04-.46.13-.64.09-.18.24-.34.45-.49s.51-.28.89-.4l.88-.31.64.25-.48.31c-.2.14-.36.27-.49.37s-.21.2-.26.29c-.05.1-.08.22-.08.38,0,.18.04.33.12.43s.23.17.44.2c.21.04.5.05.87.05s.68-.02.9-.05.37-.1.45-.2c.08-.1.13-.23.13-.41,0-.15-.03-.26-.09-.34-.06-.07-.16-.13-.3-.16-.14-.04-.33-.07-.58-.1l-1.86-.2c-.31-.03-.56-.12-.73-.25-.18-.14-.3-.3-.37-.5-.07-.2-.09-.39-.05-.59.03-.2.11-.38.22-.54.12-.16.27-.28.45-.35Zm1.8-3.4c.69,0,1.23.06,1.64.19s.7.33.88.6.27.64.27,1.09-.09.8-.26,1.07-.47.48-.88.61-.96.19-1.65.19-1.24-.06-1.65-.19-.71-.33-.89-.6c-.18-.27-.27-.63-.27-1.08s.09-.81.27-1.09c.18-.28.48-.48.89-.61s.97-.19,1.66-.19Zm-.01,1.09c-.44,0-.74.06-.91.17-.17.12-.25.32-.25.62s.08.5.25.62c.17.12.47.18.91.18s.74-.06.9-.18c.16-.12.24-.33.24-.62s-.08-.5-.24-.62c-.16-.12-.46-.17-.9-.17Zm3.48-.94l-.1.76-1.58.2-.43-.96h2.11Z"/><path class="cls-15" d="m680.89,170.26c1,0,1.72.17,2.15.51.44.34.65.85.65,1.52,0,.54-.13.95-.41,1.22s-.76.4-1.45.4h-3.31v-1h2.82c.27,0,.45-.06.52-.17.08-.12.11-.28.11-.49,0-.28-.09-.47-.25-.58-.16-.11-.42-.16-.79-.16-.33,0-.58.04-.77.13-.18.09-.31.26-.38.5-.07.25-.11.61-.11,1.08,0,.5.04.88.13,1.15.09.27.24.45.45.56s.51.16.88.16c.27,0,.61-.01,1.01-.03.4-.02.81-.05,1.22-.1l.17,1.09c-.23.11-.5.2-.79.26-.3.06-.6.11-.91.14-.31.03-.61.04-.9.04-.75,0-1.36-.11-1.82-.33-.46-.22-.79-.56-1-1.01-.2-.46-.31-1.04-.31-1.75,0-.78.1-1.39.31-1.85.21-.46.54-.78.98-.98.45-.2,1.04-.3,1.76-.3Z"/><path class="cls-15" d="m690.13,167.92c.58,0,1.07.05,1.49.15.42.1.74.29.97.57.23.28.35.68.35,1.21,0,.31-.04.6-.11.87s-.21.55-.41.83c-.2.29-.48.63-.85,1.02l-2.17,2.24c.2-.03.4-.05.61-.07.2-.01.41-.02.62-.02h2.56v1.61h-5.93v-.98c0-.14.02-.28.06-.4.04-.12.1-.24.19-.34l2.06-2.21c.49-.5.86-.95,1.12-1.34s.39-.73.38-1.02c0-.18-.05-.3-.14-.38-.08-.08-.21-.13-.38-.16s-.38-.04-.62-.04c-.28,0-.54,0-.79,0-.24,0-.5.01-.78.03-.28.02-.6.04-.97.07l-.07-1.37c.39-.09.75-.15,1.06-.19.32-.04.62-.07.9-.08.28-.01.57-.02.85-.02Z"/></g><g id="Carrière_1"><rect class="cls-25" x="629.95" y="307.98" width="194.74" height="131.97"/><path class="cls-24" d="m704.77,370.07c.39,0,.73,0,1,.03.28.02.53.05.76.09.23.04.47.1.72.17l-.14,1.34c-.26-.02-.51-.03-.73-.04-.22,0-.46-.01-.71-.02s-.55,0-.91,0c-.41,0-.73.08-.95.24-.23.16-.39.44-.49.83-.1.4-.14.94-.14,1.64s.05,1.24.14,1.64c.1.4.26.67.49.83.23.16.55.24.95.24.55,0,1.02,0,1.39-.02.38-.02.75-.04,1.12-.08l.16,1.34c-.38.12-.78.21-1.18.26-.4.05-.9.08-1.49.08-.86,0-1.54-.14-2.06-.41-.52-.28-.89-.73-1.12-1.35-.23-.62-.34-1.46-.34-2.52s.11-1.9.34-2.52c.23-.62.6-1.07,1.12-1.35.52-.28,1.2-.41,2.06-.41Z"/><path class="cls-24" d="m713.19,374.84v1s-2.65.01-2.65.01c-.22,0-.37.05-.46.16-.09.1-.14.24-.14.42v.29c0,.2.06.35.17.46.11.11.29.16.54.16.21,0,.43-.04.68-.13.24-.09.49-.21.73-.37.24-.16.45-.35.64-.56v.77c-.07.12-.18.27-.32.45-.14.18-.32.36-.53.53s-.47.32-.76.44c-.29.12-.62.18-.98.18s-.68-.06-.97-.19-.52-.32-.68-.56-.25-.56-.25-.92v-.61c0-.47.16-.84.48-1.1.32-.26.76-.4,1.32-.4h3.2Zm-1.58-2.44c.5,0,.92.07,1.26.2.34.13.61.36.79.67.18.32.27.75.27,1.3v3.91h-1.42l-.25-1.28-.12-.18v-2.46c0-.28-.07-.48-.2-.61-.13-.13-.38-.19-.75-.19-.3,0-.68,0-1.14.03-.46.02-.92.05-1.4.08l-.17-1.18c.29-.06.62-.1,1-.14s.75-.07,1.13-.1c.38-.03.71-.04,1.01-.04Z"/><path class="cls-24" d="m716.71,372.56l.22,1.18.17.16v4.6h-1.78v-5.93h1.39Zm2.89-.16l-.17,1.64h-.49c-.28,0-.57.04-.88.12s-.69.2-1.15.36l-.12-1c.42-.37.84-.65,1.26-.84.42-.19.84-.29,1.24-.29h.31Z"/><path class="cls-24" d="m721.83,372.56l.22,1.18.17.16v4.6h-1.78v-5.93h1.39Zm2.89-.16l-.17,1.64h-.49c-.28,0-.57.04-.88.12s-.69.2-1.15.36l-.12-1c.42-.37.84-.65,1.26-.84.42-.19.84-.29,1.24-.29h.31Z"/><path class="cls-24" d="m726.88,369.95c.35,0,.53.18.53.54v.64c0,.36-.18.54-.53.54h-.77c-.35,0-.53-.18-.53-.54v-.64c0-.36.18-.54.53-.54h.77Zm.49,2.62v5.93h-1.76v-5.93h1.76Z"/><path class="cls-24" d="m731.68,372.41c1,0,1.72.17,2.15.51.44.34.65.85.65,1.52,0,.54-.13.95-.41,1.22-.28.27-.76.4-1.45.4h-3.31v-1h2.82c.27,0,.45-.06.52-.17s.11-.28.11-.49c0-.28-.09-.47-.25-.58s-.42-.16-.79-.16c-.33,0-.58.04-.77.13-.18.09-.31.26-.38.5-.07.25-.11.61-.11,1.08,0,.5.04.88.13,1.15s.24.45.45.56c.21.1.51.16.88.16.27,0,.61,0,1.01-.03.4-.02.81-.05,1.22-.1l.17,1.09c-.23.11-.5.2-.79.26-.3.06-.6.11-.91.14-.31.03-.61.04-.9.04-.75,0-1.36-.11-1.82-.33s-.79-.56-1-1.01c-.2-.46-.31-1.04-.31-1.75,0-.78.1-1.39.31-1.85s.54-.78.98-.98c.45-.2,1.04-.3,1.76-.3Zm-1.46-3.11l2.44,1.78-.52.76-2.69-1.34.77-1.19Z"/><path class="cls-24" d="m737.04,372.56l.22,1.18.17.16v4.6h-1.78v-5.93h1.39Zm2.89-.16l-.17,1.64h-.49c-.28,0-.57.04-.88.12s-.69.2-1.15.36l-.12-1c.42-.37.84-.65,1.26-.84.42-.19.84-.29,1.24-.29h.31Z"/><path class="cls-24" d="m743.48,372.41c1,0,1.72.17,2.15.51.44.34.65.85.65,1.52,0,.54-.13.95-.41,1.22-.28.27-.76.4-1.45.4h-3.31v-1h2.82c.27,0,.45-.06.52-.17s.11-.28.11-.49c0-.28-.09-.47-.25-.58s-.42-.16-.79-.16c-.33,0-.58.04-.77.13-.18.09-.31.26-.38.5-.07.25-.11.61-.11,1.08,0,.5.04.88.13,1.15s.24.45.45.56c.21.1.51.16.88.16.27,0,.61,0,1.01-.03.4-.02.81-.05,1.22-.1l.17,1.09c-.23.11-.5.2-.79.26-.3.06-.6.11-.91.14-.31.03-.61.04-.9.04-.75,0-1.36-.11-1.82-.33s-.79-.56-1-1.01c-.2-.46-.31-1.04-.31-1.75,0-.78.1-1.39.31-1.85s.54-.78.98-.98c.45-.2,1.04-.3,1.76-.3Z"/><path class="cls-24" d="m753.39,370.21v8.28h-1.82v-5.87c0-.15,0-.3.01-.45,0-.15.03-.3.06-.45l-1.97.5-.22-1.19,2.11-.83h1.82Z"/></g><g id="Carrière_2"><path class="cls-26" d="m558.96,525.04c165.43,0,93.12-24.49,190.36-24.49v111.53h-190.36v-87.04Z"/><path class="cls-24" d="m630.4,565.72c.39,0,.73,0,1,.03.28.02.53.05.76.09.23.04.47.1.72.17l-.14,1.34c-.26-.02-.51-.03-.73-.04-.22,0-.46-.01-.71-.02-.25,0-.55,0-.91,0-.41,0-.73.08-.95.24-.23.16-.39.44-.49.83-.1.4-.14.94-.14,1.64s.05,1.24.14,1.64c.1.4.26.67.49.83.23.16.55.24.95.24.55,0,1.02,0,1.39-.02s.75-.04,1.12-.08l.16,1.34c-.38.12-.78.21-1.18.26-.4.05-.9.08-1.49.08-.86,0-1.54-.14-2.06-.41-.52-.28-.89-.73-1.12-1.35-.23-.62-.34-1.46-.34-2.52s.11-1.9.34-2.52c.23-.62.6-1.07,1.12-1.35.52-.28,1.2-.41,2.06-.41Z"/><path class="cls-24" d="m638.83,570.5v1s-2.65.01-2.65.01c-.22,0-.37.05-.46.16-.09.1-.14.24-.14.42v.29c0,.2.06.35.17.46.11.11.29.16.54.16.21,0,.43-.04.68-.13.24-.09.49-.21.73-.37s.45-.35.64-.56v.77c-.07.12-.18.27-.32.45-.14.18-.32.36-.53.53-.22.17-.47.32-.76.44s-.62.18-.98.18-.68-.06-.97-.19-.52-.32-.68-.56-.25-.56-.25-.92v-.61c0-.47.16-.84.48-1.1.32-.26.76-.4,1.32-.4h3.2Zm-1.58-2.44c.5,0,.92.07,1.26.2.34.13.61.36.79.67.18.32.27.75.27,1.3v3.91h-1.42l-.25-1.28-.12-.18v-2.46c0-.28-.07-.48-.2-.61-.13-.13-.38-.19-.75-.19-.3,0-.68.01-1.14.03-.46.02-.92.05-1.4.08l-.17-1.18c.29-.06.62-.1,1-.14s.75-.07,1.13-.1.71-.04,1.01-.04Z"/><path class="cls-24" d="m642.34,568.22l.22,1.18.17.16v4.6h-1.78v-5.93h1.39Zm2.89-.16l-.17,1.64h-.49c-.28,0-.57.04-.88.12s-.69.2-1.15.36l-.12-1c.42-.37.84-.65,1.26-.84.42-.19.84-.29,1.24-.29h.31Z"/><path class="cls-24" d="m647.47,568.22l.22,1.18.17.16v4.6h-1.78v-5.93h1.39Zm2.89-.16l-.17,1.64h-.49c-.28,0-.57.04-.88.12s-.69.2-1.15.36l-.12-1c.42-.37.84-.65,1.26-.84.42-.19.84-.29,1.24-.29h.31Z"/><path class="cls-24" d="m652.52,565.6c.35,0,.53.18.53.54v.64c0,.36-.18.54-.53.54h-.77c-.35,0-.53-.18-.53-.54v-.64c0-.36.18-.54.53-.54h.77Zm.49,2.62v5.93h-1.76v-5.93h1.76Z"/><path class="cls-24" d="m657.32,568.06c1,0,1.72.17,2.15.51.44.34.65.85.65,1.52,0,.54-.13.95-.41,1.22-.28.27-.76.4-1.45.4h-3.31v-1h2.82c.27,0,.45-.06.52-.17.08-.12.11-.28.11-.49,0-.28-.09-.47-.25-.58-.16-.11-.42-.16-.79-.16-.33,0-.58.04-.77.13-.18.09-.31.26-.38.5-.07.25-.11.61-.11,1.08,0,.5.04.88.13,1.15.09.27.24.45.45.56.21.1.51.16.88.16.27,0,.61-.01,1.01-.03.4-.02.81-.05,1.22-.1l.17,1.09c-.23.11-.5.2-.79.26-.3.06-.6.11-.91.14-.31.03-.61.04-.9.04-.75,0-1.36-.11-1.82-.33-.46-.22-.79-.56-1-1.01-.2-.46-.31-1.04-.31-1.75,0-.78.1-1.39.31-1.85.21-.46.54-.78.98-.98s1.04-.3,1.76-.3Zm-1.46-3.11l2.44,1.78-.52.76-2.69-1.34.77-1.19Z"/><path class="cls-24" d="m662.67,568.22l.22,1.18.17.16v4.6h-1.78v-5.93h1.39Zm2.89-.16l-.17,1.64h-.49c-.28,0-.57.04-.88.12s-.69.2-1.15.36l-.12-1c.42-.37.84-.65,1.26-.84.42-.19.84-.29,1.24-.29h.31Z"/><path class="cls-24" d="m669.11,568.06c1,0,1.72.17,2.15.51.44.34.65.85.65,1.52,0,.54-.13.95-.41,1.22-.28.27-.76.4-1.45.4h-3.31v-1h2.82c.27,0,.45-.06.52-.17.08-.12.11-.28.11-.49,0-.28-.09-.47-.25-.58-.16-.11-.42-.16-.79-.16-.33,0-.58.04-.77.13-.18.09-.31.26-.38.5-.07.25-.11.61-.11,1.08,0,.5.04.88.13,1.15.09.27.24.45.45.56.21.1.51.16.88.16.27,0,.61-.01,1.01-.03.4-.02.81-.05,1.22-.1l.17,1.09c-.23.11-.5.2-.79.26-.3.06-.6.11-.91.14-.31.03-.61.04-.9.04-.75,0-1.36-.11-1.82-.33-.46-.22-.79-.56-1-1.01-.2-.46-.31-1.04-.31-1.75,0-.78.1-1.39.31-1.85.21-.46.54-.78.98-.98s1.04-.3,1.76-.3Z"/><path class="cls-24" d="m678.35,565.72c.58,0,1.07.05,1.49.15.42.1.74.29.97.57.23.28.35.68.35,1.21,0,.31-.04.6-.11.87-.08.27-.21.55-.41.83-.2.29-.48.63-.85,1.02l-2.17,2.24c.2-.03.4-.05.61-.07.2-.01.41-.02.62-.02h2.56v1.61h-5.93v-.98c0-.14.02-.28.06-.4.04-.12.1-.24.19-.34l2.06-2.21c.49-.5.86-.95,1.12-1.34.26-.39.39-.73.38-1.02,0-.18-.05-.3-.14-.38-.08-.08-.21-.13-.38-.16-.17-.02-.38-.04-.62-.04-.28,0-.54,0-.79,0s-.5.01-.78.03c-.28.02-.6.04-.97.07l-.07-1.37c.39-.09.75-.15,1.06-.19.32-.04.62-.07.9-.08.28-.01.57-.02.85-.02Z"/></g><g id="Carrière_3"><polygon class="cls-27" points="576.89 333.68 443.17 333.68 443.17 266.77 576.89 262.16 576.89 333.68"/><path class="cls-24" d="m486.42,294.01c.39,0,.73,0,1,.03.28.02.53.05.76.09.23.04.47.1.72.17l-.14,1.34c-.26-.02-.51-.03-.73-.04-.22,0-.46-.01-.71-.02-.25,0-.55,0-.91,0-.41,0-.73.08-.95.24-.23.16-.39.44-.49.83-.1.4-.14.94-.14,1.64s.05,1.24.14,1.64c.1.4.26.67.49.83.23.16.55.24.95.24.55,0,1.02,0,1.39-.02s.75-.04,1.12-.08l.16,1.34c-.38.12-.78.21-1.18.26-.4.05-.9.08-1.49.08-.86,0-1.54-.14-2.06-.41-.52-.28-.89-.73-1.12-1.35-.23-.62-.34-1.46-.34-2.52s.11-1.9.34-2.52c.23-.62.6-1.07,1.12-1.35.52-.28,1.2-.41,2.06-.41Z"/><path class="cls-24" d="m494.84,298.78v1s-2.65.01-2.65.01c-.22,0-.37.05-.46.16-.09.1-.14.24-.14.42v.29c0,.2.06.35.17.46.11.11.29.16.54.16.21,0,.43-.04.68-.13.24-.09.49-.21.73-.37s.45-.35.64-.56v.77c-.07.12-.18.27-.32.45-.14.18-.32.36-.53.53-.22.17-.47.32-.76.44s-.62.18-.98.18-.68-.06-.97-.19-.52-.32-.68-.56-.25-.56-.25-.92v-.61c0-.47.16-.84.48-1.1.32-.26.76-.4,1.32-.4h3.2Zm-1.58-2.44c.5,0,.92.07,1.26.2.34.13.61.36.79.67.18.32.27.75.27,1.3v3.91h-1.42l-.25-1.28-.12-.18v-2.46c0-.28-.07-.48-.2-.61-.13-.13-.38-.19-.75-.19-.3,0-.68.01-1.14.03-.46.02-.92.05-1.4.08l-.17-1.18c.29-.06.62-.1,1-.14s.75-.07,1.13-.1.71-.04,1.01-.04Z"/><path class="cls-24" d="m498.36,296.5l.22,1.18.17.16v4.6h-1.78v-5.93h1.39Zm2.89-.16l-.17,1.64h-.49c-.28,0-.57.04-.88.12s-.69.2-1.15.36l-.12-1c.42-.37.84-.65,1.26-.84.42-.19.84-.29,1.24-.29h.31Z"/><path class="cls-24" d="m503.48,296.5l.22,1.18.17.16v4.6h-1.78v-5.93h1.39Zm2.89-.16l-.17,1.64h-.49c-.28,0-.57.04-.88.12s-.69.2-1.15.36l-.12-1c.42-.37.84-.65,1.26-.84.42-.19.84-.29,1.24-.29h.31Z"/><path class="cls-24" d="m508.53,293.89c.35,0,.53.18.53.54v.64c0,.36-.18.54-.53.54h-.77c-.35,0-.53-.18-.53-.54v-.64c0-.36.18-.54.53-.54h.77Zm.49,2.62v5.93h-1.76v-5.93h1.76Z"/><path class="cls-24" d="m513.33,296.35c1,0,1.72.17,2.15.51.44.34.65.85.65,1.52,0,.54-.13.95-.41,1.22-.28.27-.76.4-1.45.4h-3.31v-1h2.82c.27,0,.45-.06.52-.17.08-.12.11-.28.11-.49,0-.28-.09-.47-.25-.58-.16-.11-.42-.16-.79-.16-.33,0-.58.04-.77.13-.18.09-.31.26-.38.5-.07.25-.11.61-.11,1.08,0,.5.04.88.13,1.15.09.27.24.45.45.56.21.1.51.16.88.16.27,0,.61-.01,1.01-.03.4-.02.81-.05,1.22-.1l.17,1.09c-.23.11-.5.2-.79.26-.3.06-.6.11-.91.14-.31.03-.61.04-.9.04-.75,0-1.36-.11-1.82-.33-.46-.22-.79-.56-1-1.01-.2-.46-.31-1.04-.31-1.75,0-.78.1-1.39.31-1.85.21-.46.54-.78.98-.98s1.04-.3,1.76-.3Zm-1.46-3.11l2.44,1.78-.52.76-2.69-1.34.77-1.19Z"/><path class="cls-24" d="m518.69,296.5l.22,1.18.17.16v4.6h-1.78v-5.93h1.39Zm2.89-.16l-.17,1.64h-.49c-.28,0-.57.04-.88.12s-.69.2-1.15.36l-.12-1c.42-.37.84-.65,1.26-.84.42-.19.84-.29,1.24-.29h.31Z"/><path class="cls-24" d="m525.13,296.35c1,0,1.72.17,2.15.51.44.34.65.85.65,1.52,0,.54-.13.95-.41,1.22-.28.27-.76.4-1.45.4h-3.31v-1h2.82c.27,0,.45-.06.52-.17.08-.12.11-.28.11-.49,0-.28-.09-.47-.25-.58-.16-.11-.42-.16-.79-.16-.33,0-.58.04-.77.13-.18.09-.31.26-.38.5-.07.25-.11.61-.11,1.08,0,.5.04.88.13,1.15.09.27.24.45.45.56.21.1.51.16.88.16.27,0,.61-.01,1.01-.03.4-.02.81-.05,1.22-.1l.17,1.09c-.23.11-.5.2-.79.26-.3.06-.6.11-.91.14-.31.03-.61.04-.9.04-.75,0-1.36-.11-1.82-.33-.46-.22-.79-.56-1-1.01-.2-.46-.31-1.04-.31-1.75,0-.78.1-1.39.31-1.85.21-.46.54-.78.98-.98s1.04-.3,1.76-.3Z"/><path class="cls-24" d="m534.22,293.98c.66,0,1.18.06,1.58.17.4.12.68.31.86.59.18.28.27.67.27,1.16,0,.38-.04.72-.11,1.01s-.2.53-.38.71c-.18.18-.45.3-.79.36v.05c.57.09.96.3,1.18.65.22.34.33.82.34,1.43,0,.58-.08,1.05-.26,1.41-.18.36-.49.63-.91.8s-.98.26-1.69.26c-.48,0-.96-.02-1.45-.07-.49-.04-.96-.1-1.42-.16l.07-1.34c.32.02.61.04.86.05.25.01.49.02.73.03.23,0,.47.01.71.01.39,0,.7-.03.92-.1.22-.07.38-.19.48-.37s.14-.43.14-.76c0-.26-.03-.47-.1-.64-.07-.17-.19-.3-.38-.4-.18-.09-.45-.13-.8-.13h-1.57s0-1.2,0-1.2h1.57c.26,0,.47-.03.62-.09.15-.06.27-.14.34-.24.08-.1.13-.22.15-.35.02-.14.04-.28.04-.44,0-.26-.05-.46-.13-.6-.08-.14-.21-.23-.4-.28-.19-.05-.45-.07-.79-.07-.42,0-.82,0-1.21.02-.39.01-.73.02-1.03.03l-.08-1.28c.45-.08.89-.14,1.33-.17.44-.04.87-.05,1.3-.05Z"/></g><g id="Carrière_4"><polygon class="cls-28" points="547.52 606 438.11 606 435.09 537.58 547.52 533.25 547.52 606"/><path class="cls-24" d="m467.15,565.72c.39,0,.73,0,1,.03.28.02.53.05.76.09.23.04.47.1.72.17l-.14,1.34c-.26-.02-.51-.03-.73-.04-.22,0-.46-.01-.71-.02s-.55,0-.91,0c-.41,0-.73.08-.95.24-.23.16-.39.44-.49.83-.1.4-.14.94-.14,1.64s.05,1.24.14,1.64c.1.4.26.67.49.83.23.16.55.24.95.24.55,0,1.02,0,1.39-.02.38-.02.75-.04,1.12-.08l.16,1.34c-.38.12-.78.21-1.18.26-.4.05-.9.08-1.49.08-.86,0-1.54-.14-2.06-.41-.52-.28-.89-.73-1.12-1.35-.23-.62-.34-1.46-.34-2.52s.11-1.9.34-2.52c.23-.62.6-1.07,1.12-1.35.52-.28,1.2-.41,2.06-.41Z"/><path class="cls-24" d="m475.57,570.5v1s-2.65.01-2.65.01c-.22,0-.37.05-.46.16-.09.1-.14.24-.14.42v.29c0,.2.06.35.17.46.11.11.29.16.54.16.21,0,.43-.04.68-.13.24-.09.49-.21.73-.37.24-.16.45-.35.64-.56v.77c-.07.12-.18.27-.32.45-.14.18-.32.36-.53.53s-.47.32-.76.44c-.29.12-.62.18-.98.18s-.68-.06-.97-.19-.52-.32-.68-.56-.25-.56-.25-.92v-.61c0-.47.16-.84.48-1.1.32-.26.76-.4,1.32-.4h3.2Zm-1.58-2.44c.5,0,.92.07,1.26.2.34.13.61.36.79.67.18.32.27.75.27,1.3v3.91h-1.42l-.25-1.28-.12-.18v-2.46c0-.28-.07-.48-.2-.61-.13-.13-.38-.19-.75-.19-.3,0-.68,0-1.14.03-.46.02-.92.05-1.4.08l-.17-1.18c.29-.06.62-.1,1-.14s.75-.07,1.13-.1c.38-.03.71-.04,1.01-.04Z"/><path class="cls-24" d="m479.09,568.22l.22,1.18.17.16v4.6h-1.78v-5.93h1.39Zm2.89-.16l-.17,1.64h-.49c-.28,0-.57.04-.88.12s-.69.2-1.15.36l-.12-1c.42-.37.84-.65,1.26-.84.42-.19.84-.29,1.24-.29h.31Z"/><path class="cls-24" d="m484.21,568.22l.22,1.18.17.16v4.6h-1.78v-5.93h1.39Zm2.89-.16l-.17,1.64h-.49c-.28,0-.57.04-.88.12s-.69.2-1.15.36l-.12-1c.42-.37.84-.65,1.26-.84.42-.19.84-.29,1.24-.29h.31Z"/><path class="cls-24" d="m489.26,565.6c.35,0,.53.18.53.54v.64c0,.36-.18.54-.53.54h-.77c-.35,0-.53-.18-.53-.54v-.64c0-.36.18-.54.53-.54h.77Zm.49,2.62v5.93h-1.76v-5.93h1.76Z"/><path class="cls-24" d="m494.06,568.06c1,0,1.72.17,2.15.51.44.34.65.85.65,1.52,0,.54-.13.95-.41,1.22-.28.27-.76.4-1.45.4h-3.31v-1h2.82c.27,0,.45-.06.52-.17s.11-.28.11-.49c0-.28-.09-.47-.25-.58s-.42-.16-.79-.16c-.33,0-.58.04-.77.13-.18.09-.31.26-.38.5-.07.25-.11.61-.11,1.08,0,.5.04.88.13,1.15s.24.45.45.56c.21.1.51.16.88.16.27,0,.61,0,1.01-.03.4-.02.81-.05,1.22-.1l.17,1.09c-.23.11-.5.2-.79.26-.3.06-.6.11-.91.14-.31.03-.61.04-.9.04-.75,0-1.36-.11-1.82-.33s-.79-.56-1-1.01c-.2-.46-.31-1.04-.31-1.75,0-.78.1-1.39.31-1.85s.54-.78.98-.98c.45-.2,1.04-.3,1.76-.3Zm-1.46-3.11l2.44,1.78-.52.76-2.69-1.34.77-1.19Z"/><path class="cls-24" d="m499.42,568.22l.22,1.18.17.16v4.6h-1.78v-5.93h1.39Zm2.89-.16l-.17,1.64h-.49c-.28,0-.57.04-.88.12s-.69.2-1.15.36l-.12-1c.42-.37.84-.65,1.26-.84.42-.19.84-.29,1.24-.29h.31Z"/><path class="cls-24" d="m505.86,568.06c1,0,1.72.17,2.15.51.44.34.65.85.65,1.52,0,.54-.13.95-.41,1.22-.28.27-.76.4-1.45.4h-3.31v-1h2.82c.27,0,.45-.06.52-.17s.11-.28.11-.49c0-.28-.09-.47-.25-.58s-.42-.16-.79-.16c-.33,0-.58.04-.77.13-.18.09-.31.26-.38.5-.07.25-.11.61-.11,1.08,0,.5.04.88.13,1.15s.24.45.45.56c.21.1.51.16.88.16.27,0,.61,0,1.01-.03.4-.02.81-.05,1.22-.1l.17,1.09c-.23.11-.5.2-.79.26-.3.06-.6.11-.91.14-.31.03-.61.04-.9.04-.75,0-1.36-.11-1.82-.33s-.79-.56-1-1.01c-.2-.46-.31-1.04-.31-1.75,0-.78.1-1.39.31-1.85s.54-.78.98-.98c.45-.2,1.04-.3,1.76-.3Z"/><path class="cls-24" d="m515.96,565.87l-1.99,4.76c-.06.13-.06.23,0,.29.06.07.14.1.25.1h4.75v1.09l-1.02.18h-5.05c-.22,0-.42-.06-.58-.19-.16-.12-.27-.28-.32-.48-.05-.2-.03-.39.05-.59l2.17-5.17h1.73Zm2,1.61v6.67h-1.69v-5.35l.3-1.32h1.39Z"/></g><g id="Carrière_5"><rect id="Carrière_de_dressage" class="cls-29" x="443.18" y="353.95" width="131.19" height="50.77"/><path class="cls-24" d="m485.2,375.43c.39,0,.73,0,1,.03.28.02.53.05.76.09.23.04.47.1.72.17l-.14,1.34c-.26-.02-.51-.03-.73-.04-.22,0-.46-.01-.71-.02s-.55,0-.91,0c-.41,0-.73.08-.95.24-.23.16-.39.44-.49.83-.1.4-.14.94-.14,1.64s.05,1.24.14,1.64c.1.4.26.67.49.83.23.16.55.24.95.24.55,0,1.02,0,1.39-.02.38-.02.75-.04,1.12-.08l.16,1.34c-.38.12-.78.21-1.18.26-.4.05-.9.08-1.49.08-.86,0-1.54-.14-2.06-.41-.52-.28-.89-.73-1.12-1.35-.23-.62-.34-1.46-.34-2.52s.11-1.9.34-2.52c.23-.62.6-1.07,1.12-1.35.52-.28,1.2-.41,2.06-.41Z"/><path class="cls-24" d="m493.62,380.21v1s-2.65.01-2.65.01c-.22,0-.37.05-.46.16-.09.1-.14.24-.14.42v.29c0,.2.06.35.17.46.11.11.29.16.54.16.21,0,.43-.04.68-.13.24-.09.49-.21.73-.37.24-.16.45-.35.64-.56v.77c-.07.12-.18.27-.32.45-.14.18-.32.36-.53.53s-.47.32-.76.44c-.29.12-.62.18-.98.18s-.68-.06-.97-.19-.52-.32-.68-.56-.25-.56-.25-.92v-.61c0-.47.16-.84.48-1.1.32-.26.76-.4,1.32-.4h3.2Zm-1.58-2.44c.5,0,.92.07,1.26.2.34.13.61.36.79.67.18.32.27.75.27,1.3v3.91h-1.42l-.25-1.28-.12-.18v-2.46c0-.28-.07-.48-.2-.61-.13-.13-.38-.19-.75-.19-.3,0-.68,0-1.14.03-.46.02-.92.05-1.4.08l-.17-1.18c.29-.06.62-.1,1-.14s.75-.07,1.13-.1c.38-.03.71-.04,1.01-.04Z"/><path class="cls-24" d="m497.14,377.93l.22,1.18.17.16v4.6h-1.78v-5.93h1.39Zm2.89-.16l-.17,1.64h-.49c-.28,0-.57.04-.88.12s-.69.2-1.15.36l-.12-1c.42-.37.84-.65,1.26-.84.42-.19.84-.29,1.24-.29h.31Z"/><path class="cls-24" d="m502.26,377.93l.22,1.18.17.16v4.6h-1.78v-5.93h1.39Zm2.89-.16l-.17,1.64h-.49c-.28,0-.57.04-.88.12s-.69.2-1.15.36l-.12-1c.42-.37.84-.65,1.26-.84.42-.19.84-.29,1.24-.29h.31Z"/><path class="cls-24" d="m507.31,375.31c.35,0,.53.18.53.54v.64c0,.36-.18.54-.53.54h-.77c-.35,0-.53-.18-.53-.54v-.64c0-.36.18-.54.53-.54h.77Zm.49,2.62v5.93h-1.76v-5.93h1.76Z"/><path class="cls-24" d="m512.11,377.77c1,0,1.72.17,2.15.51.44.34.65.85.65,1.52,0,.54-.13.95-.41,1.22-.28.27-.76.4-1.45.4h-3.31v-1h2.82c.27,0,.45-.06.52-.17s.11-.28.11-.49c0-.28-.09-.47-.25-.58s-.42-.16-.79-.16c-.33,0-.58.04-.77.13-.18.09-.31.26-.38.5-.07.25-.11.61-.11,1.08,0,.5.04.88.13,1.15s.24.45.45.56c.21.1.51.16.88.16.27,0,.61,0,1.01-.03.4-.02.81-.05,1.22-.1l.17,1.09c-.23.11-.5.2-.79.26-.3.06-.6.11-.91.14-.31.03-.61.04-.9.04-.75,0-1.36-.11-1.82-.33s-.79-.56-1-1.01c-.2-.46-.31-1.04-.31-1.75,0-.78.1-1.39.31-1.85s.54-.78.98-.98c.45-.2,1.04-.3,1.76-.3Zm-1.46-3.11l2.44,1.78-.52.76-2.69-1.34.77-1.19Z"/><path class="cls-24" d="m517.47,377.93l.22,1.18.17.16v4.6h-1.78v-5.93h1.39Zm2.89-.16l-.17,1.64h-.49c-.28,0-.57.04-.88.12s-.69.2-1.15.36l-.12-1c.42-.37.84-.65,1.26-.84.42-.19.84-.29,1.24-.29h.31Z"/><path class="cls-24" d="m523.91,377.77c1,0,1.72.17,2.15.51.44.34.65.85.65,1.52,0,.54-.13.95-.41,1.22-.28.27-.76.4-1.45.4h-3.31v-1h2.82c.27,0,.45-.06.52-.17s.11-.28.11-.49c0-.28-.09-.47-.25-.58s-.42-.16-.79-.16c-.33,0-.58.04-.77.13-.18.09-.31.26-.38.5-.07.25-.11.61-.11,1.08,0,.5.04.88.13,1.15s.24.45.45.56c.21.1.51.16.88.16.27,0,.61,0,1.01-.03.4-.02.81-.05,1.22-.1l.17,1.09c-.23.11-.5.2-.79.26-.3.06-.6.11-.91.14-.31.03-.61.04-.9.04-.75,0-1.36-.11-1.82-.33s-.79-.56-1-1.01c-.2-.46-.31-1.04-.31-1.75,0-.78.1-1.39.31-1.85s.54-.78.98-.98c.45-.2,1.04-.3,1.76-.3Z"/><path class="cls-24" d="m535.62,375.57l-.06,1.38h-3.44l-.1,1.56,1.21.13c.5.05.93.14,1.27.29.34.14.61.33.81.56.2.23.34.5.43.8s.13.64.13,1.02-.04.7-.13,1.03-.24.61-.45.86-.51.44-.88.58c-.38.14-.86.21-1.44.21-.38,0-.82-.02-1.3-.07s-.97-.11-1.47-.19l.17-1.4c.39.04.77.07,1.15.1.37.03.7.04.99.04.42,0,.74-.04.96-.13s.37-.22.45-.4c.08-.18.13-.41.15-.68,0-.26-.02-.47-.09-.63-.07-.16-.18-.28-.34-.37-.16-.09-.36-.15-.61-.19s-.56-.07-.93-.09l-1.03-.12c-.17-.02-.3-.09-.41-.21-.1-.12-.15-.26-.14-.43l.2-3.67h4.91Z"/></g><g id="Parking_voitures_1"><rect class="cls-20" x="852.61" y="105.37" width="45.31" height="100.48"/><path class="cls-15" d="m855.94,173.7c0-.78.08-1.38.24-1.82.16-.44.44-.75.83-.94.39-.19.94-.28,1.64-.28s1.25.09,1.64.27.67.47.82.88c.16.41.23.96.23,1.66,0,.37-.02.73-.05,1.08-.03.35-.07.68-.12.98-.05.3-.1.56-.15.78-.05.22-.1.36-.15.44l-.91-.04v-2.98c0-.32-.05-.57-.12-.75-.07-.18-.2-.31-.4-.38-.19-.08-.46-.11-.8-.11s-.62.04-.82.11c-.19.08-.33.2-.4.38-.08.18-.11.43-.11.75,0,.74,0,1.37.01,1.9,0,.53.02.88.05,1.07l-1.32.18c-.04-.34-.07-.65-.08-.95-.02-.3-.03-.62-.03-.97,0-.35,0-.77,0-1.27Zm.12,1.34h8.28v1.84h-8.28v-1.84Z"/><path class="cls-15" d="m860.69,164.92h1s.01,2.65.01,2.65c0,.22.05.37.16.46.1.09.24.14.42.14h.29c.2,0,.35-.06.46-.17.11-.11.16-.29.16-.54,0-.21-.04-.43-.13-.68-.09-.24-.21-.49-.37-.73-.16-.24-.35-.45-.56-.64h.77c.12.07.27.18.45.32.18.14.36.32.53.53.17.22.32.47.44.76.12.29.18.62.18.98s-.06.68-.19.97-.32.52-.56.68-.56.25-.92.25h-.61c-.47,0-.84-.16-1.1-.48-.26-.32-.4-.76-.4-1.32v-3.2Zm-2.44,1.58c0-.5.07-.92.2-1.26.13-.34.36-.61.67-.79.32-.18.75-.27,1.3-.27h3.91v1.42l-1.28.25-.18.12h-2.46c-.28,0-.48.07-.61.2-.13.13-.19.38-.19.75,0,.3.01.68.03,1.14.02.46.05.92.08,1.4l-1.18.17c-.06-.29-.1-.62-.14-1s-.07-.75-.1-1.13c-.03-.38-.04-.71-.04-1.01Z"/><path class="cls-15" d="m858.41,161.4l1.18-.22.16-.17h4.6v1.78h-5.93v-1.39Zm-.16-2.89l1.64.17v.49c0,.28.04.57.12.88s.2.69.36,1.15l-1,.12c-.37-.42-.65-.84-.84-1.26s-.29-.84-.29-1.24v-.31Z"/><path class="cls-15" d="m855.94,155.89h3.47c.28-.01.55,0,.82.04.26.03.52.08.78.14.25-.06.5-.1.76-.13.26-.03.5-.05.73-.05h1.85v1.78h-8.4v-1.78Zm4.56-.83h1.08v1.38h-1.08v-1.38Zm-2.09-3.13l2.06,1.55c.11.07.22.16.32.28s.18.2.23.28h.05c.04-.07.12-.16.25-.28.13-.11.26-.2.38-.28l2.63-1.75v1.98l-3.34,2.03-2.59-1.82v-1.98Z"/><path class="cls-15" d="m855.79,149.64c0-.35.18-.53.54-.53h.64c.36,0,.54.18.54.53v.77c0,.35-.18.53-.54.53h-.64c-.36,0-.54-.18-.54-.53v-.77Zm2.62-.49h5.93v1.76h-5.93v-1.76Z"/><path class="cls-15" d="m858.41,146.22l1.18-.2.16-.14h4.6v1.78h-5.93v-1.43Zm-.16-2.7c0-1.12.55-1.68,1.64-1.68h4.44v1.78h-3.89c-.26,0-.45.05-.55.14-.1.1-.15.26-.15.49,0,.26.05.52.15.79.1.27.25.61.46,1.01l-1,.08c-.36-.42-.64-.86-.83-1.3-.19-.44-.29-.88-.29-1.31Z"/><path class="cls-15" d="m861.65,139.6l.16-.89c.06.11.16.19.3.23s.26.03.38-.03c.12-.06.19-.2.22-.42l.25-2.18c.06-.62.24-1.06.52-1.32s.7-.38,1.24-.38c.51,0,.91.1,1.18.31s.47.54.57,1c.1.46.16,1.06.16,1.82,0,.62-.03,1.14-.09,1.54s-.16.72-.29.96c-.14.24-.31.4-.53.49-.22.09-.49.14-.82.14-.25,0-.46-.04-.64-.13-.18-.09-.34-.24-.49-.45s-.28-.51-.4-.89l-.31-.88.25-.64.31.48c.14.2.27.36.37.49s.2.21.29.26c.1.05.22.08.38.08.18,0,.33-.04.43-.12s.17-.23.2-.44c.04-.21.05-.5.05-.87s-.02-.68-.05-.9-.1-.37-.2-.45c-.1-.08-.23-.13-.41-.13-.15,0-.26.03-.34.09-.07.06-.13.16-.16.3-.04.14-.07.33-.1.58l-.2,1.86c-.03.31-.12.56-.25.73-.14.18-.3.3-.5.37-.2.07-.39.09-.59.05-.2-.03-.38-.11-.54-.22-.16-.12-.28-.27-.35-.45Zm-3.4-1.8c0-.69.06-1.23.19-1.64s.33-.7.6-.88.64-.27,1.09-.27.8.09,1.07.26.48.47.61.88.19.96.19,1.65-.06,1.24-.19,1.65-.33.71-.6.89c-.27.18-.63.27-1.08.27s-.81-.09-1.09-.27c-.28-.18-.48-.48-.61-.89s-.19-.97-.19-1.66Zm1.09.01c0,.44.06.74.17.91.12.17.32.25.62.25s.5-.08.62-.25c.12-.17.18-.47.18-.91s-.06-.74-.18-.9c-.12-.16-.33-.24-.62-.24s-.5.08-.62.24c-.12.16-.17.46-.17.9Zm-.94-3.48l.76.1.2,1.58-.96.43v-2.11Z"/><path class="cls-15" d="m887.86,172.38l5.51,1.96c.13.05.23.12.31.22.08.1.11.22.11.35v1.55c0,.14-.04.25-.11.35-.08.1-.18.17-.31.22l-5.51,1.96v-1.88l3.71-1.09c.18-.05.36-.09.54-.13.18-.04.36-.08.53-.12v-.16c-.18-.05-.35-.09-.53-.14-.18-.04-.36-.09-.53-.14l-3.71-1.07v-1.88Z"/><path class="cls-15" d="m887.71,168.85c0-.74.1-1.34.31-1.79.2-.45.53-.77.99-.97s1.07-.29,1.84-.29,1.36.1,1.81.29.78.52.98.97c.2.45.3,1.04.3,1.79s-.1,1.33-.3,1.78c-.2.45-.53.78-.98.98-.46.2-1.06.3-1.81.3s-1.38-.1-1.84-.3c-.46-.2-.79-.53-.99-.98-.2-.45-.31-1.05-.31-1.78Zm1.3,0c0,.3.05.54.16.72.1.18.29.3.55.37.26.07.64.11,1.13.11s.85-.04,1.12-.11c.26-.07.45-.2.55-.37.1-.18.15-.42.15-.72s-.05-.54-.15-.72-.28-.3-.55-.37-.64-.11-1.12-.11-.86.04-1.13.11-.45.2-.55.37-.16.42-.16.72Z"/><path class="cls-15" d="m885.25,163.27c0-.35.18-.53.54-.53h.64c.36,0,.54.18.54.53v.77c0,.35-.18.53-.54.53h-.64c-.36,0-.54-.18-.54-.53v-.77Zm2.62-.49h5.93v1.76h-5.93v-1.76Z"/><path class="cls-15" d="m887.86,157.31h1.16v4.48h-1.1l-.06-1.15v-3.32Zm-1.64,1.66h5.68c.22,0,.37-.05.46-.15.09-.1.14-.27.14-.5v-.77l1.2-.19c.05.14.09.32.13.53.04.21.06.42.08.62s.03.38.03.53c0,.54-.14.95-.43,1.25s-.69.45-1.21.45h-6.07s0-1.78,0-1.78Z"/><path class="cls-15" d="m887.86,154.62h3.9c.25,0,.42-.05.53-.16s.16-.28.16-.52-.05-.49-.14-.74-.24-.55-.44-.91l.97-.14c.38.43.66.86.84,1.27s.28.84.28,1.28c0,1.13-.55,1.69-1.66,1.69h-4.44v-1.78Zm0-3.92h5.93v1.4l-1.16.2-.17.17h-4.6v-1.78Z"/><path class="cls-15" d="m887.86,147.85l1.18-.22.16-.17h4.6v1.78h-5.93v-1.39Zm-.16-2.89l1.64.17v.49c0,.28.04.57.12.88s.2.69.36,1.15l-1,.12c-.37-.42-.65-.84-.84-1.26s-.29-.84-.29-1.24v-.31Z"/><path class="cls-15" d="m887.71,141.41c0-1,.17-1.72.51-2.15.34-.44.85-.65,1.52-.65.54,0,.95.13,1.22.41s.4.76.4,1.45v3.31h-1v-2.82c0-.27-.06-.45-.17-.52-.12-.08-.28-.11-.49-.11-.28,0-.47.09-.58.25-.11.16-.16.42-.16.79,0,.33.04.58.13.77.09.18.26.31.5.38.25.07.61.11,1.08.11.5,0,.88-.04,1.15-.13.27-.09.45-.24.56-.45s.16-.51.16-.88c0-.27-.01-.61-.03-1.01-.02-.4-.05-.81-.1-1.22l1.09-.17c.11.23.2.5.26.79.06.3.11.6.14.91.03.31.04.61.04.9,0,.75-.11,1.36-.33,1.82-.22.46-.56.79-1.01,1-.46.2-1.04.31-1.75.31-.78,0-1.39-.1-1.85-.31-.46-.21-.78-.54-.98-.98-.2-.45-.3-1.04-.3-1.76Z"/><path class="cls-15" d="m887.71,135.2c0-.29.01-.6.03-.94.02-.34.05-.66.08-.98.03-.32.07-.6.12-.85l1.1.12c0,.38-.01.77-.02,1.16,0,.39,0,.77,0,1.13,0,.31,0,.55.01.72.02.17.05.29.11.35.06.07.17.1.32.1.18,0,.29-.06.35-.18s.13-.32.2-.6l.37-1.55c.13-.5.32-.86.57-1.1s.63-.36,1.13-.36.88.09,1.14.28c.26.18.45.48.55.88s.15.92.15,1.55c0,.25-.01.62-.04,1.1-.02.49-.08,1.02-.18,1.61l-1.1-.12c0-.14.01-.33.02-.55s0-.47,0-.73v-.79c0-.41,0-.72-.03-.94s-.07-.36-.14-.44c-.07-.08-.18-.12-.32-.12-.18,0-.3.07-.36.2-.06.14-.13.35-.2.65l-.37,1.5c-.1.38-.24.67-.4.88s-.36.35-.59.44c-.23.08-.51.13-.83.13-.41,0-.73-.08-.98-.25-.24-.16-.42-.43-.53-.8-.11-.37-.17-.87-.17-1.48Z"/></g><g id="Parking_voitures_2"><polygon class="cls-20" points="735.96 62.82 735.96 117.78 694.73 118.4 693.35 74.31 735.96 62.82"/><polygon class="cls-20" points="691.99 118.44 663.29 118.87 662.07 81.52 691.13 74.42 691.99 118.44"/><polygon class="cls-20" points="660.41 118.91 630.58 119.35 629.13 88.06 658.63 82.07 660.41 118.91"/><polygon class="cls-20" points="628.11 119.39 602.01 119.78 600.23 92.92 626.91 88.39 628.11 119.39"/><path class="cls-15" d="m625.34,100.86c.78,0,1.38.08,1.82.24.44.16.75.44.94.83.19.39.28.94.28,1.64s-.09,1.25-.27,1.64-.47.67-.88.82c-.41.16-.96.23-1.66.23-.37,0-.73-.02-1.08-.05-.35-.03-.68-.07-.98-.12-.3-.05-.56-.1-.78-.15-.22-.05-.36-.1-.44-.15l.04-.91h2.98c.32,0,.57-.05.75-.12.18-.07.31-.2.38-.4.08-.19.11-.46.11-.8s-.04-.62-.11-.82c-.08-.19-.2-.33-.38-.4-.18-.08-.43-.11-.75-.11-.74,0-1.37,0-1.9.01-.53,0-.88.02-1.07.05l-.18-1.32c.34-.04.65-.07.95-.08.3-.02.62-.03.97-.03.35,0,.77,0,1.27,0Zm-1.34.12v8.28h-1.84v-8.28h1.84Z"/><path class="cls-15" d="m634.12,105.61v1s-2.65.01-2.65.01c-.22,0-.37.05-.46.16-.09.1-.14.24-.14.42v.29c0,.2.06.35.17.46.11.11.29.16.54.16.21,0,.43-.04.68-.13.24-.09.49-.21.73-.37.24-.16.45-.35.64-.56v.77c-.07.12-.18.27-.32.45-.14.18-.32.36-.53.53-.22.17-.47.32-.76.44-.29.12-.62.18-.98.18s-.68-.06-.97-.19-.52-.32-.68-.56-.25-.56-.25-.92v-.61c0-.47.16-.84.48-1.1.32-.26.76-.4,1.32-.4h3.2Zm-1.58-2.44c.5,0,.92.07,1.26.2.34.13.61.36.79.67.18.32.27.75.27,1.3v3.91h-1.42l-.25-1.28-.12-.18v-2.46c0-.28-.07-.48-.2-.61-.13-.13-.38-.19-.75-.19-.3,0-.68.01-1.14.03-.46.02-.92.05-1.4.08l-.17-1.18c.29-.06.62-.1,1-.14s.75-.07,1.13-.1c.38-.03.71-.04,1.01-.04Z"/><path class="cls-15" d="m637.64,103.33l.22,1.18.17.16v4.6h-1.78v-5.93h1.39Zm2.89-.16l-.17,1.64h-.49c-.28,0-.57.04-.88.12s-.69.2-1.15.36l-.12-1c.42-.37.84-.65,1.26-.84s.84-.29,1.24-.29h.31Z"/><path class="cls-15" d="m643.14,100.86v3.47c.01.28,0,.55-.04.82-.03.26-.08.52-.14.78.06.25.1.5.13.76.03.26.05.5.05.73v1.85h-1.78v-8.4h1.78Zm.83,4.56v1.08h-1.38v-1.08h1.38Zm3.13-2.09l-1.55,2.06c-.07.11-.16.22-.28.32s-.2.18-.28.23v.05c.07.04.16.12.28.25.11.13.2.26.28.38l1.75,2.63h-1.98l-2.03-3.34,1.82-2.59h1.98Z"/><path class="cls-15" d="m649.4,100.71c.35,0,.53.18.53.54v.64c0,.36-.18.54-.53.54h-.77c-.35,0-.53-.18-.53-.54v-.64c0-.36.18-.54.53-.54h.77Zm.49,2.62v5.93h-1.76v-5.93h1.76Z"/><path class="cls-15" d="m652.82,103.33l.2,1.18.14.16v4.6h-1.78v-5.93h1.43Zm2.7-.16c1.12,0,1.68.55,1.68,1.64v4.44h-1.78v-3.89c0-.26-.05-.45-.14-.55-.1-.1-.26-.15-.49-.15-.26,0-.52.05-.79.15-.27.1-.61.25-1.01.46l-.08-1c.42-.36.86-.64,1.3-.83.44-.19.88-.29,1.31-.29Z"/><path class="cls-15" d="m659.44,106.57l.89.16c-.11.06-.19.16-.23.3s-.03.26.03.38c.06.12.2.19.42.22l2.18.25c.62.06,1.06.24,1.32.52s.38.7.38,1.24c0,.51-.1.91-.31,1.18s-.54.47-1,.57c-.46.1-1.06.16-1.82.16-.62,0-1.14-.03-1.54-.09s-.72-.16-.96-.29c-.24-.14-.4-.31-.49-.53-.09-.22-.14-.49-.14-.82,0-.25.04-.46.13-.64.09-.18.24-.34.45-.49s.51-.28.89-.4l.88-.31.64.25-.48.31c-.2.14-.36.27-.49.37s-.21.2-.26.29c-.05.1-.08.22-.08.38,0,.18.04.33.12.43s.23.17.44.2c.21.04.5.05.87.05s.68-.02.9-.05.37-.1.45-.2c.08-.1.13-.23.13-.41,0-.15-.03-.26-.09-.34-.06-.07-.16-.13-.3-.16-.14-.04-.33-.07-.58-.1l-1.86-.2c-.31-.03-.56-.12-.73-.25-.18-.14-.3-.3-.37-.5-.07-.2-.09-.39-.05-.59.03-.2.11-.38.22-.54.12-.16.27-.28.45-.35Zm1.8-3.4c.69,0,1.23.06,1.64.19s.7.33.88.6.27.64.27,1.09-.09.8-.26,1.07-.47.48-.88.61-.96.19-1.65.19-1.24-.06-1.65-.19-.71-.33-.89-.6c-.18-.27-.27-.63-.27-1.08s.09-.81.27-1.09c.18-.28.48-.48.89-.61s.97-.19,1.66-.19Zm-.01,1.09c-.44,0-.74.06-.91.17-.17.12-.25.32-.25.62s.08.5.25.62c.17.12.47.18.91.18s.74-.06.9-.18c.16-.12.24-.33.24-.62s-.08-.5-.24-.62c-.16-.12-.46-.17-.9-.17Zm3.48-.94l-.1.76-1.58.2-.43-.96h2.11Z"/><path class="cls-15" d="m673.86,103.33l-1.96,5.51c-.05.13-.12.23-.22.31-.1.08-.22.11-.35.11h-1.55c-.14,0-.25-.04-.35-.11-.1-.08-.17-.18-.22-.31l-1.96-5.51h1.88l1.09,3.71c.05.18.09.36.13.54.04.18.08.36.12.53h.16c.05-.18.09-.35.14-.53.04-.18.09-.36.14-.53l1.07-3.71h1.88Z"/><path class="cls-15" d="m677.39,103.17c.74,0,1.34.1,1.79.31.45.2.77.53.97.99s.29,1.07.29,1.84-.1,1.36-.29,1.81-.52.78-.97.98c-.45.2-1.04.3-1.79.3s-1.33-.1-1.78-.3c-.45-.2-.78-.53-.98-.98-.2-.46-.3-1.06-.3-1.81s.1-1.38.3-1.84c.2-.46.53-.79.98-.99.45-.2,1.05-.31,1.78-.31Zm0,1.3c-.3,0-.54.05-.72.16-.18.1-.3.29-.37.55-.07.26-.11.64-.11,1.13s.04.85.11,1.12c.07.26.2.45.37.55.18.1.42.15.72.15s.54-.05.72-.15.3-.28.37-.55.11-.64.11-1.12-.04-.86-.11-1.13-.2-.45-.37-.55-.42-.16-.72-.16Z"/><path class="cls-15" d="m682.97,100.71c.35,0,.53.18.53.54v.64c0,.36-.18.54-.53.54h-.77c-.35,0-.53-.18-.53-.54v-.64c0-.36.18-.54.53-.54h.77Zm.49,2.62v5.93h-1.76v-5.93h1.76Z"/><path class="cls-15" d="m688.94,103.33v1.16h-4.48v-1.1l1.15-.06h3.32Zm-1.66-1.64v5.68c0,.22.05.37.15.46.1.09.27.14.5.14h.77l.19,1.2c-.14.05-.32.09-.53.13-.21.04-.42.06-.62.08s-.38.03-.53.03c-.54,0-.95-.14-1.25-.43s-.45-.69-.45-1.21v-6.07s1.78,0,1.78,0Z"/><path class="cls-15" d="m691.62,103.33v3.9c0,.25.05.42.16.53s.28.16.52.16.49-.05.74-.14.55-.24.91-.44l.14.97c-.43.38-.86.66-1.27.84s-.84.28-1.28.28c-1.13,0-1.69-.55-1.69-1.66v-4.44h1.78Zm3.92,0v5.93h-1.4l-.2-1.16-.17-.17v-4.6h1.78Z"/><path class="cls-15" d="m698.39,103.33l.22,1.18.17.16v4.6h-1.78v-5.93h1.39Zm2.89-.16l-.17,1.64h-.49c-.28,0-.57.04-.88.12s-.69.2-1.15.36l-.12-1c.42-.37.84-.65,1.26-.84s.84-.29,1.24-.29h.31Z"/><path class="cls-15" d="m704.83,103.17c1,0,1.72.17,2.15.51.44.34.65.85.65,1.52,0,.54-.13.95-.41,1.22s-.76.4-1.45.4h-3.31v-1h2.82c.27,0,.45-.06.52-.17.08-.12.11-.28.11-.49,0-.28-.09-.47-.25-.58-.16-.11-.42-.16-.79-.16-.33,0-.58.04-.77.13-.18.09-.31.26-.38.5-.07.25-.11.61-.11,1.08,0,.5.04.88.13,1.15.09.27.24.45.45.56s.51.16.88.16c.27,0,.61-.01,1.01-.03.4-.02.81-.05,1.22-.1l.17,1.09c-.23.11-.5.2-.79.26-.3.06-.6.11-.91.14-.31.03-.61.04-.9.04-.75,0-1.36-.11-1.82-.33-.46-.22-.79-.56-1-1.01-.2-.46-.31-1.04-.31-1.75,0-.78.1-1.39.31-1.85.21-.46.54-.78.98-.98.45-.2,1.04-.3,1.76-.3Z"/><path class="cls-15" d="m711.05,103.17c.29,0,.6.01.94.03.34.02.66.05.98.08.32.03.6.07.85.12l-.12,1.1c-.38,0-.77-.01-1.16-.02-.39,0-.77,0-1.13,0-.31,0-.55,0-.72.01-.17.02-.29.05-.35.11-.07.06-.1.17-.1.32,0,.18.06.29.18.35s.32.13.6.2l1.55.37c.5.13.86.32,1.1.57s.36.63.36,1.13-.09.88-.28,1.14c-.18.26-.48.45-.88.55s-.92.15-1.55.15c-.25,0-.62-.01-1.1-.04-.49-.02-1.02-.08-1.61-.18l.12-1.1c.14,0,.33.01.55.02s.47,0,.73,0h.79c.41,0,.72,0,.94-.03s.36-.07.44-.14c.08-.07.12-.18.12-.32,0-.18-.07-.3-.2-.36-.14-.06-.35-.13-.65-.2l-1.5-.37c-.38-.1-.67-.24-.88-.4s-.35-.36-.44-.59c-.08-.23-.13-.51-.13-.83,0-.41.08-.73.25-.98.16-.24.43-.42.8-.53.37-.11.87-.17,1.48-.17Z"/></g><g id="Parking_voitures_3"><polygon class="cls-20" points="566.25 168.07 566.25 192.66 388.5 197.56 393.82 173.21 390.67 121.98 424.14 109.58 424.14 168.07 566.25 168.07"/><text class="cls-12" transform="translate(430.81 184.77)"><tspan class="cls-30" x="0" y="0">P</tspan><tspan x="7.36" y="0">arking</tspan><tspan class="cls-8" x="43.52" y="0"> </tspan><tspan class="cls-9" x="45.84" y="0">v</tspan><tspan x="52.52" y="0">oitu</tspan><tspan class="cls-16" x="74.95" y="0">r</tspan><tspan class="cls-14" x="79.98" y="0">es</tspan></text></g><g id="Parking_camions"><path class="cls-20" d="m240.18,196.09c-60.04,0-97.3-5.62-112.98,17.75s-76.01,26.03-83.99,52.64,12.42,33.42,7.1,55.01c-5.32,21.59-33.42,29.25-26.91,52.48,6.51,23.23,36.67,33.58,48.8,33.29s32.24-.59,41.41-19.22c5.92-9.89-7.99-14.06,8.87-24.55,21.89-11.53,47.91,15.67,85.77,5.03s39.04-84.29,39.04-84.29l-7.1-88.13Z"/><path class="cls-15" d="m108.08,287.34c.78,0,1.38.08,1.82.24.44.16.75.44.94.83.19.39.28.94.28,1.64s-.09,1.25-.27,1.64-.47.67-.88.82c-.41.16-.96.23-1.66.23-.37,0-.73-.02-1.08-.05-.35-.03-.68-.07-.98-.12-.3-.05-.56-.1-.78-.15-.22-.05-.36-.1-.44-.15l.04-.91h2.98c.32,0,.57-.05.75-.12.18-.07.31-.2.38-.4.08-.19.11-.46.11-.8s-.04-.62-.11-.82c-.08-.19-.2-.33-.38-.4-.18-.08-.43-.11-.75-.11-.74,0-1.37,0-1.9.01-.53,0-.88.02-1.07.05l-.18-1.32c.34-.04.65-.07.95-.08.3-.02.62-.03.97-.03.35,0,.77,0,1.27,0Zm-1.34.12v8.28h-1.84v-8.28h1.84Z"/><path class="cls-15" d="m116.86,292.09v1s-2.65.01-2.65.01c-.22,0-.37.05-.46.16-.09.1-.14.24-.14.42v.29c0,.2.06.35.17.46.11.11.29.16.54.16.21,0,.43-.04.68-.13.24-.09.49-.21.73-.37.24-.16.45-.35.64-.56v.77c-.07.12-.18.27-.32.45-.14.18-.32.36-.53.53-.22.17-.47.32-.76.44-.29.12-.62.18-.98.18s-.68-.06-.97-.19-.52-.32-.68-.56-.25-.56-.25-.92v-.61c0-.47.16-.84.48-1.1.32-.26.76-.4,1.32-.4h3.2Zm-1.58-2.44c.5,0,.92.07,1.26.2.34.13.61.36.79.67.18.32.27.75.27,1.3v3.91h-1.42l-.25-1.28-.12-.18v-2.46c0-.28-.07-.48-.2-.61-.13-.13-.38-.19-.75-.19-.3,0-.68.01-1.14.03-.46.02-.92.05-1.4.08l-.17-1.18c.29-.06.62-.1,1-.14s.75-.07,1.13-.1c.38-.03.71-.04,1.01-.04Z"/><path class="cls-15" d="m120.38,289.81l.22,1.18.17.16v4.6h-1.78v-5.93h1.39Zm2.89-.16l-.17,1.64h-.49c-.28,0-.57.04-.88.12s-.69.2-1.15.36l-.12-1c.42-.37.84-.65,1.26-.84s.84-.29,1.24-.29h.31Z"/><path class="cls-15" d="m125.88,287.34v3.47c.01.28,0,.55-.04.82-.03.26-.08.52-.14.78.06.25.1.5.13.76.03.26.05.5.05.73v1.85h-1.78v-8.4h1.78Zm.83,4.56v1.08h-1.38v-1.08h1.38Zm3.13-2.09l-1.55,2.06c-.07.11-.16.22-.28.32s-.2.18-.28.23v.05c.07.04.16.12.28.25.11.13.2.26.28.38l1.75,2.63h-1.98l-2.03-3.34,1.82-2.59h1.98Z"/><path class="cls-15" d="m132.13,287.19c.35,0,.53.18.53.54v.64c0,.36-.18.54-.53.54h-.77c-.35,0-.53-.18-.53-.54v-.64c0-.36.18-.54.53-.54h.77Zm.49,2.62v5.93h-1.76v-5.93h1.76Z"/><path class="cls-15" d="m135.56,289.81l.2,1.18.14.16v4.6h-1.78v-5.93h1.43Zm2.7-.16c1.12,0,1.68.55,1.68,1.64v4.44h-1.78v-3.89c0-.26-.05-.45-.14-.55-.1-.1-.26-.15-.49-.15-.26,0-.52.05-.79.15-.27.1-.61.25-1.01.46l-.08-1c.42-.36.86-.64,1.3-.83.44-.19.88-.29,1.31-.29Z"/><path class="cls-15" d="m142.18,293.05l.89.16c-.11.06-.19.16-.23.3s-.03.26.03.38c.06.12.2.19.42.22l2.18.25c.62.06,1.06.24,1.32.52s.38.7.38,1.24c0,.51-.1.91-.31,1.18s-.54.47-1,.57c-.46.1-1.06.16-1.82.16-.62,0-1.14-.03-1.54-.09s-.72-.16-.96-.29c-.24-.14-.4-.31-.49-.53-.09-.22-.14-.49-.14-.82,0-.25.04-.46.13-.64.09-.18.24-.34.45-.49s.51-.28.89-.4l.88-.31.64.25-.48.31c-.2.14-.36.27-.49.37s-.21.2-.26.29c-.05.1-.08.22-.08.38,0,.18.04.33.12.43s.23.17.44.2c.21.04.5.05.87.05s.68-.02.9-.05.37-.1.45-.2c.08-.1.13-.23.13-.41,0-.15-.03-.26-.09-.34-.06-.07-.16-.13-.3-.16-.14-.04-.33-.07-.58-.1l-1.86-.2c-.31-.03-.56-.12-.73-.25-.18-.14-.3-.3-.37-.5-.07-.2-.09-.39-.05-.59.03-.2.11-.38.22-.54.12-.16.27-.28.45-.35Zm1.8-3.4c.69,0,1.23.06,1.64.19s.7.33.88.6.27.64.27,1.09-.09.8-.26,1.07-.47.48-.88.61-.96.19-1.65.19-1.24-.06-1.65-.19-.71-.33-.89-.6c-.18-.27-.27-.63-.27-1.08s.09-.81.27-1.09c.18-.28.48-.48.89-.61s.97-.19,1.66-.19Zm-.01,1.09c-.44,0-.74.06-.91.17-.17.12-.25.32-.25.62s.08.5.25.62c.17.12.47.18.91.18s.74-.06.9-.18c.16-.12.24-.33.24-.62s-.08-.5-.24-.62c-.16-.12-.46-.17-.9-.17Zm3.48-.94l-.1.76-1.58.2-.43-.96h2.11Z"/><path class="cls-15" d="m153.66,289.65c.22,0,.45.01.71.03.26.02.51.06.77.11.26.05.5.13.71.22l-.19,1.12c-.32,0-.63-.02-.92-.02-.29,0-.55-.01-.79-.01-.36,0-.64.05-.85.14s-.36.27-.45.51c-.09.24-.14.58-.14,1.01s.05.78.14,1.03c.09.25.24.42.45.52.21.1.49.14.85.14.13,0,.29,0,.49-.01.2,0,.42-.02.65-.03.23-.01.46-.03.68-.07l.17,1.13c-.32.14-.68.25-1.09.31-.41.06-.81.1-1.21.1-.74,0-1.32-.1-1.76-.31-.44-.2-.75-.53-.94-.99-.19-.46-.29-1.06-.29-1.82s.1-1.37.29-1.82c.2-.46.51-.78.95-.98.44-.2,1.02-.3,1.75-.3Z"/><path class="cls-15" d="m161.73,292.09v1s-2.65.01-2.65.01c-.22,0-.37.05-.46.16-.09.1-.14.24-.14.42v.29c0,.2.06.35.17.46.11.11.29.16.54.16.21,0,.43-.04.68-.13.24-.09.49-.21.73-.37.24-.16.45-.35.64-.56v.77c-.07.12-.18.27-.32.45-.14.18-.32.36-.53.53-.22.17-.47.32-.76.44-.29.12-.62.18-.98.18s-.68-.06-.97-.19-.52-.32-.68-.56-.25-.56-.25-.92v-.61c0-.47.16-.84.48-1.1.32-.26.76-.4,1.32-.4h3.2Zm-1.58-2.44c.5,0,.92.07,1.26.2.34.13.61.36.79.67.18.32.27.75.27,1.3v3.91h-1.42l-.25-1.28-.12-.18v-2.46c0-.28-.07-.48-.2-.61-.13-.13-.38-.19-.75-.19-.3,0-.68.01-1.14.03-.46.02-.92.05-1.4.08l-.17-1.18c.29-.06.62-.1,1-.14s.75-.07,1.13-.1c.38-.03.71-.04,1.01-.04Z"/><path class="cls-15" d="m165.27,289.81l.18,1.18.18.16v4.6h-1.78v-5.93h1.42Zm2.4-.16c.53,0,.93.14,1.21.41.28.28.41.69.41,1.23v4.44h-1.7v-3.89c0-.26-.05-.44-.16-.54-.11-.1-.27-.16-.5-.16-.14,0-.27.02-.4.05-.13.04-.28.1-.46.19-.17.09-.38.21-.63.37l-.11-.98c.39-.38.77-.66,1.14-.85s.77-.28,1.2-.28Zm3.7,0c.54,0,.94.14,1.22.42.28.28.42.69.42,1.22v4.44h-1.76v-3.89c0-.25-.05-.43-.14-.53-.1-.11-.26-.16-.5-.16-.14,0-.28.02-.41.06s-.28.1-.44.19c-.17.09-.37.21-.61.36l-.1-.98c.38-.38.76-.66,1.13-.85s.77-.28,1.19-.28Z"/><path class="cls-15" d="m175.74,287.19c.35,0,.53.18.53.54v.64c0,.36-.18.54-.53.54h-.77c-.35,0-.53-.18-.53-.54v-.64c0-.36.18-.54.53-.54h.77Zm.49,2.62v5.93h-1.76v-5.93h1.76Z"/><path class="cls-15" d="m180.55,289.65c.74,0,1.34.1,1.79.31.45.2.77.53.97.99s.29,1.07.29,1.84-.1,1.36-.29,1.81-.52.78-.97.98c-.45.2-1.04.3-1.79.3s-1.33-.1-1.78-.3c-.45-.2-.78-.53-.98-.98-.2-.46-.3-1.06-.3-1.81s.1-1.38.3-1.84c.2-.46.53-.79.98-.99.45-.2,1.05-.31,1.78-.31Zm0,1.3c-.3,0-.54.05-.72.16-.18.1-.3.29-.37.55-.07.26-.11.64-.11,1.13s.04.85.11,1.12c.07.26.2.45.37.55.18.1.42.15.72.15s.54-.05.72-.15.3-.28.37-.55.11-.64.11-1.12-.04-.86-.11-1.13-.2-.45-.37-.55-.42-.16-.72-.16Z"/><path class="cls-15" d="m186.24,289.81l.2,1.18.14.16v4.6h-1.78v-5.93h1.43Zm2.7-.16c1.12,0,1.68.55,1.68,1.64v4.44h-1.78v-3.89c0-.26-.05-.45-.14-.55-.1-.1-.26-.15-.49-.15-.26,0-.52.05-.79.15-.27.1-.61.25-1.01.46l-.08-1c.42-.36.86-.64,1.3-.83.44-.19.88-.29,1.31-.29Z"/><path class="cls-15" d="m194.28,289.65c.29,0,.6.01.94.03.34.02.66.05.98.08.32.03.6.07.85.12l-.12,1.1c-.38,0-.77-.01-1.16-.02-.39,0-.77,0-1.13,0-.31,0-.55,0-.72.01-.17.02-.29.05-.35.11-.07.06-.1.17-.1.32,0,.18.06.29.18.35s.32.13.6.2l1.55.37c.5.13.86.32,1.1.57s.36.63.36,1.13-.09.88-.28,1.14c-.18.26-.48.45-.88.55s-.92.15-1.55.15c-.25,0-.62-.01-1.1-.04-.49-.02-1.02-.08-1.61-.18l.12-1.1c.14,0,.33.01.55.02s.47,0,.73,0h.79c.41,0,.72,0,.94-.03s.36-.07.44-.14c.08-.07.12-.18.12-.32,0-.18-.07-.3-.2-.36-.14-.06-.35-.13-.65-.2l-1.5-.37c-.38-.1-.67-.24-.88-.4s-.35-.36-.44-.59c-.08-.23-.13-.51-.13-.83,0-.41.08-.73.25-.98.16-.24.43-.42.8-.53.37-.11.87-.17,1.48-.17Z"/></g></g><g id="Chemins"><g id="Chemins_piétons"><path class="cls-2" d="m740.59,123.79c-2.02,0-4.02-.01-6-.02"/><path class="cls-6" d="m730.64,123.75c-104.77-.44-140.17-1.8-138.44,18.09.85,9.83,9.09,102.98-.07,120.31-8.49,16.05-11.38,147.3-5.68,187.56"/><path class="cls-2" d="m586.74,451.67c.38,2.35.79,4.32,1.24,5.86,2.02.51,3.96.97,5.84,1.37"/><path class="cls-4" d="m597.75,459.7c40.44,7.63,48.62-9.2,79.26-12.22,32.96-3.25,139.01,5.78,151.13-7.52,11.82-12.98-2.56-53.82,4.73-95.99,5.35-30.92,26.68-31.63,39.5-72.16"/><path class="cls-2" d="m872.96,269.9c.55-1.85,1.09-3.77,1.61-5.78-1.86.66-3.75,1.32-5.67,1.97"/><path class="cls-5" d="m865.14,267.34c-45.78,15.03-106.98,25.99-137.82,5.72-32.26-21.21-13.62-59.22-123.29-42.14"/><path class="cls-2" d="m602.07,231.23c-1.94.31-3.91.63-5.92.98"/><line class="cls-7" x1="445.43" y1="344.85" x2="584.02" y2="344.85"/><path class="cls-7" d="m558.96,528.08c-32.73,2.35-60.94,4.13-94.88,3.58-14.19-2.76-24.33-9.07-27.23-21.65-6.52-40.81-1.26-176.34-1.26-176.34"/><line class="cls-7" x1="433.74" y1="409.62" x2="583.81" y2="408.81"/><line class="cls-7" x1="553.16" y1="609.33" x2="553.16" y2="528.5"/><path class="cls-7" d="m755.67,609.33c0-93.83-.15-108.17-5.03-113.5s-60.88,8.43-73.99,6.06-41.17-27.25-45.03-41.72"/><path class="cls-7" d="m629.95,329.62s-29.96-4.27-45.43.6"/><line class="cls-7" x1="592.27" y1="82.52" x2="592.2" y2="141.85"/></g><g id="Routes"><path class="cls-1" d="m1099.04,128.76c-78.08,36.89-53.83-12.82-139.6-46.69-47.91-21.44-81.63-4.88-81.63-4.88l-3.25,186.92"/><path class="cls-1" d="m234.85,213.83c12.93-12.73,96.94-70.89,143.74-90.94,40.53-17.37,88.14-28.28,107.58-31.02,54.08-7.62,119.29-9.57,134.49-11.28,30.61-3.45,57.91-11.95,85.77-18.71,55.38-13.44,101.1-39.65,118.15-36.16,50.57,10.35,53.24,51.46,53.24,51.46"/></g></g></svg>