<svg id="Calque_1" data-name="Calque 1" xmlns="http://www.w3.org/2000/svg" width="158.40015mm" height="158.40015mm" viewBox="0 0 449.00829 449.00829"><defs><style>.cls-1{fill:#fdc300;}.cls-2{fill:#003a5d;}</style></defs><title>logo</title><rect class="cls-1" width="449.00829" height="449.00829"/><path class="cls-2" d="M550.47252,518.73878H592.252c55.48825,0,102.5332-55.40545,102.5332-121.73879,0-29,4.28839-108.33333-123.63939-143.70229-6.38385-2.31173-7.16051-7.453-14.931-15.74148-1.59463-1.70091-7.09078-7.3317-9.30445-8.23964-2.03986-.83665-5.65385-.079-5.65385-.079s7.33269,24.66581-4.33581,56.33744-39.1728,111.68418-39.1728,111.68418l21.67006,13.33542,62.49715-49.05605s30.13169-1.73174,30.13169,41.07708c0,17.50275.20837,48.19582-30.01866,48.19582l-.06883-76.63758L520.5741,421.2235v97.51528Z" transform="translate(-371.77085 -195.66443)"/><path class="cls-2" d="M419.998,621.55765c-7.19381,0-14.38762-.1972-21.08647-.5916V554.74866c5.22183-.29579,14.28706-.59159,23.94388-.59159,19.41226,0,33.00911,7.98162,33.00911,32.02508C455.86451,608.94481,441.57746,621.55765,419.998,621.55765Zm1.87142-51.92935a30.7517,30.7517,0,0,0-4.63023.19621v35.5727a19.39172,19.39172,0,0,0,4.23583.2958c8.17981,0,14.58483-5.61721,14.58483-18.03285C436.05984,577.31412,434.08785,569.6283,421.86941,569.6283Z" transform="translate(-371.77085 -195.66443)"/><path class="cls-2" d="M463.0603,621.06465V554.55147h38.92113v15.56884H481.388v9.361h19.51085v14.97823H481.388V605.2h20.59347v15.86464Z" transform="translate(-371.77085 -195.66443)"/><path class="cls-2" d="M524.15249,622.34546a64.0149,64.0149,0,0,1-13.69743-1.37941l.986-16.751a46.406,46.406,0,0,0,14.19043,2.36441c4.433,0,7.29044-1.8724,7.29044-4.927,0-9.65682-24.83127-3.941-24.83127-26.70368,0-13.20344,10.14982-21.67806,27.68868-21.67806a80.01411,80.01411,0,0,1,12.12181,1.08361l-.986,15.86464a43.5028,43.5028,0,0,0-11.824-1.7738c-5.1252,0-7.29241,2.0696-7.29241,4.63121,0,8.376,24.83127,5.12421,24.83127,25.91587C552.63,612.29522,541.88855,622.34546,524.15249,622.34546Z" transform="translate(-371.77085 -195.66443)"/><path class="cls-2" d="M585.93488,570.31751v50.74714H567.60722V570.31751H553.22157v-15.766H600.3225v15.766Z" transform="translate(-371.77085 -195.66443)"/><path class="cls-2" d="M636.78062,621.06465,624.26638,596.824h-.68822v24.24066H605.24853V554.55147c6.20979-.3944,14.38763-.493,22.76266-.493,16.94924,0,26.40886,6.0116,26.40886,20.79165,0,7.883-4.435,15.47124-12.11984,18.23005,1.77282,2.66021,3.35041,5.12322,4.82743,7.68582l11.92264,20.29866Zm-9.75345-51.92935a29.60176,29.60176,0,0,0-3.449.1972v14.288a26.44985,26.44985,0,0,0,3.05461.1972c5.02462,0,8.47363-2.6612,8.47363-7.58821C635.1064,572.28851,633.03779,569.1353,627.02717,569.1353Z" transform="translate(-371.77085 -195.66443)"/><path class="cls-2" d="M662.99229,621.06465V554.55147h18.32963v66.51318Z" transform="translate(-371.77085 -195.66443)"/><path class="cls-2" d="M692.53661,621.06465V554.55147h38.9231v15.56884H710.86624v9.361h19.50888v14.97823H710.86624V605.2h20.59347v15.86464Z" transform="translate(-371.77085 -195.66443)"/><path class="cls-2" d="M771.36881,621.06465,758.85457,596.824h-.68822v24.24066H739.83672V554.55147c6.20979-.3944,14.38762-.493,22.76266-.493,16.94924,0,26.40886,6.0116,26.40886,20.79165,0,7.883-4.435,15.47124-12.11984,18.23005,1.77282,2.66021,3.35041,5.12322,4.82743,7.68582l11.92264,20.29866Zm-9.75345-51.92935a29.60176,29.60176,0,0,0-3.449.1972v14.288a26.4497,26.4497,0,0,0,3.05461.1972c5.02462,0,8.47363-2.6612,8.47363-7.58821C769.69459,572.28851,767.626,569.1353,761.61536,569.1353Z" transform="translate(-371.77085 -195.66443)"/></svg>